<svg version="1.1" xmlns="http://www.w3.org/2000/svg" viewBox="0 0 794.6965613135919 501.43062649093724" width="1589.3931226271839" height="1002.8612529818745">
  <!-- svg-source:excalidraw -->
  
  <defs>
    <style>
      @font-face {
        font-family: "Virgil";
        src: url("https://excalidraw.com/Virgil.woff2");
      }
      @font-face {
        font-family: "Cascadia";
        src: url("https://excalidraw.com/Cascadia.woff2");
      }
    </style>
  </defs>
  <rect x="0" y="0" width="794.6965613135919" height="501.43062649093724" fill="#ffffff"></rect><g stroke-linecap="round" transform="translate(11.000000000000227 237.625) rotate(0 236 44)"><path d="M0.74 0.01 C158.36 2.54, 317.64 1.65, 472.06 0.65 M0.3 0.25 C132.51 0.24, 264.1 0.25, 472.04 -0.29 M473.59 0.51 C471.66 33.6, 473.28 67.05, 470.17 86.25 M472.5 0.43 C472.51 26.94, 471.48 53.52, 471.63 87.54 M471.52 88.39 C286.37 88.51, 102.42 88.2, 0.51 87.11 M472.16 88.36 C316.88 86.83, 162.19 87.05, -0.15 88.3 M-0.96 87.97 C-0.18 59.74, 1.53 30.15, 0.04 -0.05 M-0.18 88.36 C0.48 54.22, 0.01 20.8, -0.47 -0.1" stroke="#000000" stroke-width="1" fill="none"></path></g><g transform="translate(188.00000000000023 267.625) rotate(0 59 12.5)"><text x="0" y="18" font-family="Virgil, Segoe UI Emoji" font-size="20px" fill="#000000" text-anchor="start" style="white-space: pre;" direction="ltr">Data Layer</text></g><g stroke-linecap="round" transform="translate(11.000000000000227 120.625) rotate(0 236 44)"><path d="M0.44 0.73 C186.87 1.37, 375.06 1.36, 471.8 -0.02 M0 0.2 C146.21 0.22, 291.97 0.13, 472.14 -0.38 M472.96 -0.34 C471.83 25.26, 473.29 50, 470.49 89.77 M472.72 0.89 C471.82 19.82, 470.94 38.55, 471.31 87.03 M472.2 88.86 C293.49 88.96, 115.58 88.65, -0.18 88.31 M472.18 88.02 C316.18 87.74, 159.83 88.02, 0.2 88.29 M-1.69 86.51 C2.4 57.34, -0.95 28.4, 0.91 -1.37 M0.79 87.88 C0.56 54.29, 1.11 21.27, -0.13 -0.75" stroke="#000000" stroke-width="1" fill="none"></path></g><g transform="translate(168.00000000000023 141.625) rotate(0 83 25)"><text x="0" y="18" font-family="Virgil, Segoe UI Emoji" font-size="20px" fill="#000000" text-anchor="start" style="white-space: pre;" direction="ltr">Application Layer</text><text x="0" y="43" font-family="Virgil, Segoe UI Emoji" font-size="20px" fill="#000000" text-anchor="start" style="white-space: pre;" direction="ltr">(Business Logic)</text></g><g stroke-linecap="round" transform="translate(10 11.625) rotate(0 236.5000000000001 44)"><path d="M0.07 0.65 C103.6 2.28, 208.56 2.18, 473.18 -0.36 M-0.15 -0.34 C118.27 -1.06, 236.02 -1.51, 473.39 0.32 M472.76 -1.55 C472.98 32.36, 472.11 66.21, 472.4 86.23 M472.85 0.46 C473.41 23.22, 474.48 45.37, 472.5 88.8 M473.2 87.37 C318.79 86.4, 164.5 86.08, 0.19 87.52 M472.64 87.57 C360.51 86.37, 248.46 85.98, 0.29 88.36 M-0.06 86.86 C-0.68 58.67, 1.1 29.71, 0.57 1.39 M0.43 87.35 C-1.25 64.98, -0.03 40.45, -0.47 0.18" stroke="#000000" stroke-width="1" fill="none"></path></g><g transform="translate(124.00000000000023 29.625) rotate(0 132.5 25)"><text x="132.5" y="18" font-family="Virgil, Segoe UI Emoji" font-size="20px" fill="#000000" text-anchor="middle" style="white-space: pre;" direction="ltr">Presentation Layer</text><text x="132.5" y="43" font-family="Virgil, Segoe UI Emoji" font-size="20px" fill="#000000" text-anchor="middle" style="white-space: pre;" direction="ltr">(Graphical User Interface)</text></g><g stroke-linecap="round"><g transform="translate(65.42779867437332 379.34552429473126) rotate(0 50.59369845827234 11.235293836841151)" fill-rule="evenodd"><path d="M0 0 C0 0, 0 0, 0 0 M0 0 C0 0, 0 0, 0 0 M-0.86 5.5 C3.95 2.65, 5.27 -2.62, 15.15 -8.81 M0.01 5.77 C4.03 0.98, 9.84 -5.4, 13.68 -9.7 M0.36 11.2 C8.72 3.52, 15.44 -5.16, 22.63 -15.53 M0.25 12.09 C9.06 2, 17.48 -6.34, 22.86 -15.65 M-1.04 18.02 C10.44 6.7, 19.95 -7.68, 29.12 -18.23 M0.09 18.27 C9.6 6.27, 20.03 -4.64, 29.74 -17.45 M1.84 22.69 C14.31 7.79, 29.37 -10.19, 37.01 -18.51 M0.06 22.84 C9.53 15.05, 15.94 6.02, 37.73 -17.84 M1.39 28.56 C12.11 18.04, 17.94 6.2, 44.64 -20.38 M1.76 27.69 C15.83 11.71, 28.57 -3.46, 42.62 -19.55 M3.41 30.8 C12.79 19.64, 24.8 7.03, 49.61 -21.08 M3.34 32.27 C17.71 14.72, 33.45 -0.43, 50.32 -20.11 M9.16 35.66 C19.85 19.77, 37.1 -0.55, 54.79 -19.11 M8.07 34.7 C24.13 13.65, 41.85 -6.07, 54.53 -20.92 M9.93 38.57 C26.02 16.17, 45.03 -1.94, 58.2 -20.58 M10.49 36.96 C21.6 25.23, 30.3 13.54, 59.02 -19.67 M15.74 40.4 C35.01 15.25, 53.03 -6.93, 62.43 -18.49 M13.56 39.01 C23.94 26.04, 36.36 12.42, 64.68 -18.63 M17.96 42.06 C31.75 26.39, 42.05 11.28, 70.53 -16.35 M16.86 40.5 C32.8 22.39, 48.06 5.44, 69.87 -18.27 M23.95 42.53 C36.28 22.37, 51.5 6.09, 75.39 -19.92 M21.77 40.59 C33.55 26.07, 45.43 14.32, 73.42 -18.06 M25.08 40.51 C43.4 24.64, 57.83 4.79, 77.05 -17.81 M26.99 42.72 C44.24 22.43, 62.75 0.86, 78.35 -17.12 M30.64 40.57 C47.23 24.36, 63.92 6.24, 80.62 -14.54 M33.01 42.67 C47.49 25.38, 62.84 7.29, 81.43 -14.27 M35.91 42.89 C51.55 24.37, 64.48 6.72, 84.95 -14.37 M37.68 43.26 C54.51 22.78, 72.69 4.05, 86.33 -13.91 M40.04 41.95 C55.95 29.98, 65.5 15.66, 88.68 -13.29 M42.65 43 C55.16 29.53, 67.08 13.7, 89.22 -11.06 M46.77 42.91 C56.59 32.46, 67.7 21.54, 92.77 -10.21 M47.62 43.49 C59.01 29.31, 71.31 15.8, 93.79 -10.55 M51.06 44.12 C66.09 28.31, 82.96 9.11, 95.89 -7.89 M51.47 43.84 C65.73 28.14, 80.32 11.15, 96.25 -6.99 M55.67 44.97 C69.63 30.18, 79.76 18.34, 99.07 -5.33 M56.41 43.56 C69.05 29.02, 82.56 15.54, 98.41 -3.21 M64.6 42.44 C73.1 32.65, 85.47 19.18, 102.26 -1.32 M61.91 42.97 C71.04 32.44, 79.78 22.15, 101.88 -0.81 M69.62 40.68 C79.15 30.72, 91.52 16.16, 101.12 2.27 M68.83 41.86 C76.74 34.69, 84.41 24.51, 103.28 4.47 M73.66 41.28 C85.5 28.91, 95.29 19.32, 105.49 10.13 M75.24 41.67 C83.6 33.02, 91.23 22.55, 104.35 7.44 M79.41 43.16 C86.18 34.01, 93.77 24.15, 103.54 15.53 M78.66 42.34 C85.47 35.09, 92.94 28.03, 104.54 13.36 M87.23 37.23 C90.9 32.38, 96.33 28.23, 103.66 22.67 M88.41 39 C92.93 33.97, 97.04 29.54, 102.5 23.31" stroke="#000000" stroke-width="0.5" fill="none"></path><path d="M0.47 0.19 C0.42 2.52, 0.16 8.41, 0.34 12.81 C0.52 17.22, -0.55 22.61, 1.53 26.61 C3.62 30.61, 7.31 34.23, 12.84 36.82 C18.37 39.41, 25.88 40.97, 34.71 42.15 C43.53 43.32, 56.77 44.72, 65.8 43.87 C74.83 43.03, 83.25 39.58, 88.89 37.08 C94.53 34.57, 97.71 33, 99.63 28.86 C101.54 24.72, 100.33 17.37, 100.37 12.23 C100.4 7.1, 102.01 2.76, 99.85 -1.96 C97.69 -6.67, 93.57 -12.9, 87.43 -16.03 C81.28 -19.16, 72 -20.16, 62.96 -20.75 C53.93 -21.34, 41.67 -21.07, 33.21 -19.57 C24.76 -18.08, 17.97 -15.18, 12.25 -11.8 C6.53 -8.41, 1.11 -1.21, -1.12 0.74 M-0.75 -0.75 C-0.99 1.84, -0.85 9.33, -0.54 14.09 C-0.24 18.84, -1.21 23.89, 1.11 27.79 C3.43 31.69, 7.97 35.12, 13.36 37.5 C18.75 39.88, 24.5 41.13, 33.44 42.09 C42.38 43.06, 58.17 43.83, 66.99 43.3 C75.81 42.76, 81.09 41.32, 86.35 38.86 C91.6 36.4, 95.94 32.67, 98.53 28.52 C101.13 24.37, 101.55 19.08, 101.92 13.94 C102.3 8.8, 103.65 2.6, 100.78 -2.33 C97.91 -7.26, 91.27 -12.46, 84.72 -15.61 C78.16 -18.77, 70.08 -20.52, 61.46 -21.27 C52.84 -22.02, 41.22 -21.74, 32.98 -20.13 C24.74 -18.51, 17.75 -15.01, 12.03 -11.56 C6.3 -8.11, 0.74 -1.55, -1.38 0.56" stroke="#000000" stroke-width="1" fill="none"></path></g></g><g stroke-linecap="round" transform="translate(73.67074753819554 361.09098322876775) rotate(0 41.237976937876 15.770897695788221)"><path d="M42.71 0.5 C51.16 0.64, 63.19 2.29, 69.74 4.37 C76.28 6.44, 80.98 9.63, 81.97 12.96 C82.96 16.29, 80.53 21.31, 75.68 24.35 C70.82 27.38, 61.14 30.32, 52.86 31.18 C44.58 32.04, 34.12 30.76, 26.01 29.5 C17.9 28.23, 8.38 26.43, 4.21 23.58 C0.04 20.73, -1.11 15.76, 1.01 12.39 C3.13 9.03, 9.29 5.32, 16.91 3.39 C24.52 1.47, 41.02 1.21, 46.71 0.85 C52.4 0.49, 51.09 1.18, 51.03 1.23 M36.72 0.25 C44.9 -0.09, 57.28 1.59, 64.5 3.65 C71.72 5.71, 77.52 9.73, 80.06 12.61 C82.61 15.48, 83.38 17.88, 79.77 20.9 C76.16 23.92, 66.38 29.03, 58.39 30.73 C50.41 32.44, 40.48 32.06, 31.85 31.14 C23.22 30.23, 11.96 27.85, 6.61 25.25 C1.25 22.65, -0.92 19.06, -0.27 15.53 C0.38 11.99, 4.47 6.76, 10.49 4.03 C16.52 1.31, 31.37 -0.28, 35.89 -0.82 C40.41 -1.35, 37.48 0.5, 37.61 0.8" stroke="none" stroke-width="0" fill="#ffff"></path><path d="M33.06 -0.32 C41.12 -1.27, 53.21 -0.68, 60.89 1.13 C68.56 2.95, 75.72 7.47, 79.11 10.58 C82.5 13.69, 83.91 16.69, 81.22 19.79 C78.54 22.88, 70.75 27.36, 63.02 29.14 C55.29 30.92, 43.55 30.93, 34.86 30.49 C26.17 30.04, 16.52 28.97, 10.88 26.46 C5.24 23.95, 1.41 18.86, 1.03 15.44 C0.64 12.02, 2.35 8.42, 8.57 5.92 C14.8 3.42, 32.1 1.26, 38.4 0.45 C44.7 -0.35, 46.37 0.8, 46.38 1.09 M23.06 1.39 C30.21 -0.09, 41.06 0.33, 49.8 1.12 C58.54 1.92, 70.19 3.48, 75.51 6.16 C80.84 8.84, 82.28 13.9, 81.73 17.19 C81.17 20.48, 77.99 23.39, 72.17 25.9 C66.36 28.41, 55.82 31.52, 46.84 32.23 C37.85 32.94, 25.69 32.07, 18.25 30.15 C10.81 28.23, 4.68 24.05, 2.21 20.73 C-0.25 17.41, -0.03 13.31, 3.46 10.21 C6.95 7.12, 19.85 3.65, 23.14 2.14 C26.44 0.64, 23.06 1.01, 23.22 1.19" stroke="#000000" stroke-width="1" fill="none"></path></g><g stroke-linecap="round"><g transform="translate(65.8220452649258 416.03044446988815) rotate(0 49.73933431431925 20.731302811763157)" fill-rule="evenodd"><path d="M0 0 C0 0, 0 0, 0 0 M0 0 C0 0, 0 0, 0 0 M-0.08 5.52 C1.6 4.87, 2.44 3.35, 3.31 1.68 M0.51 5.43 C1.33 4.58, 2.49 3.27, 3.88 1.9 M0.63 11.81 C1.32 9.68, 4.35 7.65, 7.09 3.87 M0.55 12.38 C1.79 9.26, 4.77 7.29, 7.38 3.31 M-0.66 16.94 C2.49 13.14, 7.25 10.85, 9.57 5.7 M0.29 18.01 C3.42 13.33, 8.32 9.18, 9.96 6.71 M2.53 20.36 C5.46 17.86, 7.04 14.39, 14.19 6.68 M1.98 22.08 C5.72 18.65, 7.3 15.1, 14.29 7.97 M0.91 25.99 C9.09 20.38, 12.44 17.04, 15.43 10.43 M1.7 27.16 C6.15 22.52, 9.13 19.98, 17.24 10.4 M4.25 31.11 C9.45 25.28, 13.99 20.68, 21.27 9.98 M5.63 31.46 C11.91 24.37, 17.28 17.17, 20.44 12.87 M8.87 31.53 C15.24 26.45, 23.16 16.41, 25.81 13.76 M7.78 32.62 C14.5 25.48, 21.37 18.07, 26.21 12.11 M12.32 35.05 C18.1 25.91, 25.26 17.13, 30.89 12.93 M10.83 35.54 C17.1 28.35, 24.76 21.11, 31.78 13.54 M15.39 36.51 C22.22 27.66, 29.95 20.06, 36.07 12.07 M16.65 35.52 C23.67 28.74, 29.14 20.93, 36.79 13.17 M18.13 38.96 C29.29 30.84, 35.76 21.19, 41.29 11.69 M19.79 38.5 C26.93 31.19, 32.21 24.7, 40.49 14.03 M23.09 38.87 C34.14 27.88, 39.65 19.7, 48.18 11.89 M23.29 40.13 C29.71 32.71, 36.11 25.79, 46.6 12.79 M28.69 38.27 C32.86 32.85, 40 27.81, 52.02 13.27 M29.58 38.98 C37.66 29.67, 46.25 20.7, 51.77 12.69 M33.2 41.75 C37.77 34.82, 43.96 29.52, 57.12 14.95 M34.98 39.45 C41.04 31.96, 49.12 22.85, 58.47 12.43 M37.36 38.6 C44.46 32.32, 54.69 21.72, 62.03 13.91 M39.87 40.9 C46.94 31.61, 55.49 21.2, 62.84 11.61 M43.05 41.27 C48.21 32.92, 54.33 27.01, 66.96 15 M43.83 40.06 C49.93 33.84, 56.4 24.93, 67.51 13.59 M50.58 41.05 C54.91 33.37, 61.67 24.02, 74.95 13.81 M48.56 41.69 C56.81 32.19, 64.49 23.32, 73.39 12.42 M52.68 43.27 C59.71 33.76, 68.58 27.44, 79.36 11.7 M52.33 43.76 C58.45 36.36, 64.75 29.47, 80.64 10.76 M57.77 44.19 C67.73 30.54, 77.2 22.32, 86.39 9.14 M58.78 43.29 C64.43 36.15, 71.57 27.11, 85.76 11.25 M63.38 44.02 C73.31 31.97, 79.12 21.19, 101.01 0.18 M62.93 41.35 C72.44 33.77, 79.98 25.12, 99 1.92 M69.36 41.53 C75.28 32.08, 81.23 25.46, 98.73 6.29 M69.84 40.64 C77.82 33.65, 83.91 26.06, 100.75 6 M76.59 41.05 C83.85 35.07, 88.85 26.55, 103.39 11.22 M75.94 40.44 C82.3 32.37, 88.54 25.47, 102.74 9.76 M78.91 41.1 C86.69 35.06, 94.14 24.37, 101.9 14.47 M80.41 42.24 C86.48 34.36, 92.6 27.12, 103.42 15.94 M87.07 38.85 C91.98 36.35, 93.61 32.5, 99.83 25.35 M87.7 40.13 C91.64 35.73, 94.28 30.3, 101.03 24.77" stroke="#000000" stroke-width="0.5" fill="none"></path><path d="M0.12 -0.51 C0.19 1.55, 0.5 8.04, 0.87 12.51 C1.25 16.98, 0.08 22.52, 2.38 26.33 C4.68 30.14, 9.18 32.77, 14.67 35.37 C20.17 37.98, 26.52 41.19, 35.37 41.95 C44.22 42.7, 59.32 40.68, 67.77 39.9 C76.22 39.12, 81.24 39.2, 86.06 37.28 C90.88 35.36, 94.38 31.96, 96.69 28.37 C99 24.77, 99.3 20.4, 99.93 15.7 C100.56 11.01, 101.1 2.32, 100.47 0.19 C99.84 -1.93, 98.92 1.48, 96.14 2.96 C93.37 4.44, 88.79 7.42, 83.83 9.09 C78.86 10.76, 74.29 12.28, 66.36 12.98 C58.43 13.68, 45.02 14.04, 36.24 13.26 C27.47 12.47, 19.77 10.39, 13.7 8.27 C7.62 6.15, 2.13 1.98, -0.2 0.52 M-1.28 -1.82 C-1.35 0.4, -0.26 9.07, 0.27 13.91 C0.79 18.75, -0.59 23.54, 1.89 27.23 C4.37 30.91, 9.22 33.44, 15.13 36.03 C21.04 38.63, 28.87 41.81, 37.34 42.8 C45.82 43.79, 57.78 43.14, 65.99 41.99 C74.21 40.85, 81.15 37.75, 86.64 35.93 C92.12 34.12, 96.93 34.7, 98.9 31.11 C100.86 27.52, 98.54 19.11, 98.43 14.4 C98.31 9.68, 98.55 4.59, 98.21 2.84 C97.87 1.08, 98.47 2.83, 96.37 3.84 C94.27 4.86, 90.5 7.48, 85.61 8.94 C80.73 10.39, 74.91 11.83, 67.08 12.59 C59.24 13.34, 47.55 14.27, 38.61 13.45 C29.67 12.63, 19.74 10.17, 13.43 7.66 C7.11 5.15, 3.25 -0.34, 0.73 -1.62" stroke="#000000" stroke-width="1" fill="none"></path></g></g><g stroke-linecap="round"><g transform="translate(65.87275404429204 449.70391552806495) rotate(0 49.334040984567366 20.7225454442181)" fill-rule="evenodd"><path d="M0 0 C0 0, 0 0, 0 0 M0 0 C0 0, 0 0, 0 0 M0.27 5.89 C1.74 4.63, 2.33 2.99, 3.48 1.93 M0.18 5.52 C1.21 4.83, 1.79 4.22, 3.7 1.76 M-0.1 11.43 C2.58 9.5, 5.35 5.62, 7.48 3.79 M0.47 11.55 C2.5 9.27, 5.67 6.02, 6.92 3.83 M-0.26 16.42 C2.38 14.93, 6.66 10.28, 10.32 6.54 M0.87 16.91 C2.53 15.75, 4.75 11.95, 11.39 5.36 M0.78 21.82 C5 16.66, 8.26 14.85, 12.49 7.35 M2.5 22.47 C7.12 15.76, 11.64 11.39, 13.78 8.39 M1.16 29.46 C6.35 22, 13.8 13.22, 17.29 9.05 M2.32 27.43 C6.52 21.58, 12.78 16.99, 17.26 9.7 M5.92 30.09 C8.28 26.64, 11.87 22.46, 20.05 12.57 M6.26 30.8 C9.57 26.09, 12.74 21.11, 22.95 11.94 M6.73 32.9 C13.24 29.61, 14.8 23.44, 28.47 12.54 M7.83 32.65 C12.2 28.4, 16.29 23.05, 26.82 12.44 M12.06 33.2 C16.02 27.71, 20.33 24.08, 32.26 12.17 M12.55 34.02 C19.74 27.29, 26.88 18.31, 32.87 12.78 M16.73 34.21 C24.14 25.85, 32.77 18.79, 36.03 12.9 M15.74 36.46 C21.32 29.76, 25.87 25.34, 37.13 13.04 M20.99 39.2 C29.82 28.94, 37.14 20.08, 40.28 12.49 M20.53 38.54 C27.4 29.55, 35.07 20.81, 42.62 13.45 M24.12 40.19 C28.39 31.01, 35.47 27.97, 45.1 12.32 M25.37 38.21 C29.35 33.62, 33.79 28.62, 46 12.24 M28.15 37.87 C36.09 31.31, 44.43 21.88, 51.87 14.71 M28.85 39.17 C35.03 32.51, 41.57 25.31, 51.28 12.45 M36.25 38.13 C40.65 32.95, 46.7 25.87, 59.58 13.49 M33.95 38.94 C43.7 29.44, 51.83 20.69, 57.06 13.04 M37.73 37.83 C47.21 32.53, 52.37 22.13, 64.58 13.55 M40.03 39.21 C47.16 31.41, 53.16 23.75, 62.28 12 M45.02 38.9 C52.09 29.23, 61.6 19.15, 68.88 13.43 M43.81 39.44 C53.3 30.05, 60.1 21.8, 67.48 13.41 M49.43 39.68 C56.78 31.13, 62.48 24.62, 75.15 12.54 M50.07 40.7 C55.05 34.24, 60.66 26.51, 73.76 12.31 M53.46 41.65 C59.07 35.53, 67.91 26.71, 80.48 9.87 M53.95 42.01 C61.71 32.92, 70 24.24, 79.54 11.78 M60.41 42.07 C67.62 30.71, 80.24 19.18, 85.37 8.94 M59.52 41.42 C67.48 33.19, 73.53 23.86, 87.48 9.56 M66.28 42.51 C71.7 30.9, 78.44 24.65, 97.96 -0.15 M63.62 42.13 C72.2 33.9, 79.69 24.55, 99.7 0.56 M70.58 39.92 C74.85 32.13, 81.98 24, 100.24 4.82 M69.7 42.08 C78.55 32.16, 86.84 22.57, 99.95 5.95 M78.11 39.92 C88.6 28.07, 96.55 18.99, 104.15 8.6 M77.5 38.78 C86.39 27.56, 96.45 16.44, 102.69 10.09 M84.66 34.92 C91.11 30.46, 92.91 25.88, 100.74 15.63 M85.8 35.92 C88.77 31.47, 92.37 27.74, 102.21 15.23 M92.82 34.04 C94.88 31.48, 96.11 28.58, 101.65 23.86 M93.59 33.35 C96.16 29.65, 98.12 27.05, 101.31 23.87" stroke="#000000" stroke-width="0.5" fill="none"></path><path d="M-0.51 0.65 C-0.54 2.79, -0.3 8.58, -0.04 12.93 C0.22 17.28, -1.19 23.12, 1.06 26.76 C3.31 30.41, 7.5 32.44, 13.44 34.79 C19.37 37.13, 27.93 40.01, 36.67 40.81 C45.4 41.62, 57.6 40.54, 65.85 39.63 C74.11 38.73, 81.1 37.19, 86.19 35.41 C91.29 33.62, 94.16 32.12, 96.43 28.94 C98.69 25.76, 99.47 20.96, 99.77 16.32 C100.06 11.67, 98.8 3.42, 98.2 1.07 C97.59 -1.29, 98.29 0.81, 96.12 2.17 C93.96 3.54, 90.21 7.83, 85.23 9.25 C80.25 10.67, 74.12 10.4, 66.26 10.7 C58.41 11, 46.69 11.49, 38.1 11.03 C29.51 10.57, 21 9.82, 14.73 7.93 C8.47 6.05, 3.05 0.94, 0.52 -0.28 M1.43 -0.05 C1.19 1.71, -1.47 6.97, -1.12 11.08 C-0.77 15.19, 1.14 20.53, 3.53 24.63 C5.93 28.73, 7.88 32.83, 13.24 35.67 C18.59 38.51, 26.74 41.2, 35.66 41.68 C44.57 42.16, 58.21 39.26, 66.74 38.53 C75.26 37.8, 81.54 38.92, 86.84 37.29 C92.13 35.66, 96.6 32.38, 98.49 28.76 C100.38 25.14, 98.19 20.27, 98.17 15.56 C98.16 10.86, 98.7 2.67, 98.4 0.53 C98.09 -1.62, 98.73 1.23, 96.35 2.7 C93.96 4.16, 88.99 7.6, 84.09 9.31 C79.18 11.01, 74.64 12.18, 66.92 12.94 C59.2 13.71, 46.44 14.85, 37.78 13.9 C29.13 12.96, 21.01 9.45, 15.01 7.27 C9.02 5.09, 4.05 1.76, 1.82 0.82" stroke="#000000" stroke-width="1" fill="none"></path></g></g><g stroke-linecap="round"><g transform="translate(210.4073926468534 379.59676269977945) rotate(0 50.74190514439135 12.306090317854057)" fill-rule="evenodd"><path d="M0 0 C0 0, 0 0, 0 0 M0 0 C0 0, 0 0, 0 0 M0.21 7.05 C6.15 1.57, 9.68 -4.11, 15.51 -8.66 M0.57 6.22 C3.87 0.89, 7.79 -3.1, 14.92 -9.4 M-1.65 10.4 C9.37 3.92, 15.53 -6.47, 22.26 -14.54 M0.98 12.07 C8.77 3.02, 15.35 -4.7, 23.65 -15.28 M0.62 18.75 C6.63 10.22, 16.36 -0.73, 30.49 -15.52 M0.72 17.3 C12.79 3.57, 23.23 -7.89, 31.25 -16.77 M0.68 23.27 C10.43 10.19, 20.27 -1.84, 35.19 -18.65 M1.01 23.67 C9.71 12.84, 17.87 2.29, 37.86 -18.43 M0.51 28.89 C16.5 9.27, 33.82 -4.23, 42.19 -18.23 M1.65 27.78 C13.69 16.03, 23.09 2.55, 43.56 -19.37 M2.39 31.51 C21.92 13.39, 37.52 -6.95, 51.43 -18.66 M4.59 31.16 C20.73 10.9, 38.43 -7.62, 50.12 -20.06 M6.94 33.2 C17.7 19.9, 30.07 5.37, 55.02 -18.47 M6.47 33.5 C21.69 15.6, 38.09 -1.57, 54.64 -19.43 M11.69 36.35 C23.53 21.12, 40.62 0.96, 59.09 -20.7 M10.73 37.76 C23.56 21.79, 35.54 9.12, 59.89 -19.23 M15.74 39.89 C31.25 19.01, 47.8 -0.84, 65.2 -20.15 M14.81 38.34 C29 20.67, 43.62 3.17, 63.27 -18.37 M18.47 41.98 C34.47 21.51, 47.96 3.67, 70.26 -18.99 M18.34 40.74 C33.91 22.45, 49.36 4.23, 69.28 -18.5 M22.07 41.89 C34.02 29.1, 45.62 11.71, 71.9 -18.53 M22.28 41.45 C38.54 21.59, 55.79 3.51, 74.38 -18.87 M27.65 41.8 C42.61 22.06, 61.98 1.24, 77.74 -15.78 M26.52 42.62 C42.27 24.97, 57.44 7.39, 78.85 -16.92 M33.12 40.85 C46.31 28.1, 59.65 9.02, 83.4 -16.57 M32.28 42.22 C43.36 29.07, 55.76 15.95, 82.24 -14.34 M37.22 40.95 C52.54 26.86, 67.19 9.27, 85.06 -15.32 M37.68 42.69 C49.4 26.18, 63.44 10.56, 86.56 -14.99 M41.46 41.38 C53.83 32.92, 61.45 22.96, 89.61 -11.08 M42.25 43.59 C52.97 28.66, 66.85 14.99, 89.91 -11.91 M46.82 43.28 C55.59 33.65, 65.71 21.52, 93.1 -10.65 M47.08 43.01 C63.95 24.05, 81.26 4.21, 93.47 -10.47 M52.35 44.07 C67.65 27.74, 80.88 7.32, 96.2 -5.6 M52.04 43.98 C66.38 26.26, 82.28 9.45, 96.46 -8.45 M55.81 45.36 C71.81 27.32, 88.32 8.44, 100.77 -4.6 M57.88 43.38 C68.01 32.23, 80.06 19.83, 99.31 -4.35 M63.05 45.44 C76.64 30.13, 87.14 12.65, 102.52 -0.98 M62.19 44.34 C71.62 34, 80.08 23.95, 101.8 -0.05 M70.55 40.94 C79.55 31.76, 84.9 21, 103.69 3.98 M69.46 42.88 C77.78 32.21, 86.83 20.54, 102.28 3.9 M72.87 41.03 C83.34 33.23, 92.8 24.06, 103.61 6.68 M75.02 42.12 C84.17 31.45, 94.75 20.88, 103.77 8.93 M79.16 43.32 C87.3 35.68, 94.55 25.32, 102.8 15.19 M79.16 43.13 C86.68 34.96, 95.24 26.41, 104.58 14.33 M87.15 40.56 C94.55 31.21, 100.6 25.92, 100.9 23.71 M87.58 39.57 C92.38 33.33, 96.92 27.6, 101.78 22.69" stroke="#000000" stroke-width="0.5" fill="none"></path><path d="M1.16 0.01 C0.98 2.03, -0.51 8.66, -0.55 12.99 C-0.58 17.33, -1.16 21.8, 0.96 26.04 C3.08 30.27, 6.62 35.45, 12.19 38.41 C17.76 41.36, 25.55 42.9, 34.4 43.78 C43.26 44.66, 56.48 44.52, 65.33 43.71 C74.18 42.89, 81.83 41.48, 87.52 38.88 C93.2 36.29, 96.99 32.36, 99.42 28.14 C101.86 23.92, 102.2 18.45, 102.11 13.55 C102.03 8.65, 101.53 3.62, 98.92 -1.26 C96.3 -6.13, 92.44 -12.66, 86.42 -15.7 C80.41 -18.74, 71.59 -18.89, 62.84 -19.5 C54.09 -20.1, 42.56 -20.52, 33.92 -19.35 C25.28 -18.19, 16.58 -15.62, 11.01 -12.48 C5.43 -9.34, 2.39 -2.45, 0.47 -0.51 M0.3 -1.03 C0.47 1.1, 1.78 9.7, 1.76 14.36 C1.75 19.02, -1.53 23.27, 0.23 26.92 C2 30.57, 6.91 33.32, 12.37 36.27 C17.83 39.21, 23.99 43.45, 32.98 44.58 C41.96 45.71, 57.13 44.15, 66.28 43.04 C75.44 41.94, 82.59 40.56, 87.91 37.95 C93.24 35.35, 96.05 31.7, 98.22 27.42 C100.39 23.14, 100.74 17.07, 100.93 12.29 C101.12 7.5, 101.71 3.3, 99.36 -1.27 C97.01 -5.83, 92.59 -12.09, 86.85 -15.11 C81.11 -18.12, 73.73 -18.58, 64.93 -19.36 C56.13 -20.14, 43.19 -20.92, 34.05 -19.79 C24.92 -18.66, 15.63 -15.68, 10.13 -12.6 C4.63 -9.53, 2.69 -3.43, 1.05 -1.34" stroke="#000000" stroke-width="1" fill="none"></path></g></g><g stroke-linecap="round" transform="translate(218.65034151067562 361.3422216338158) rotate(0 41.237976937876056 15.770897695788221)"><path d="M56.09 1.72 C64.17 2.54, 73.79 4.73, 78.09 7.63 C82.39 10.53, 83.68 15.6, 81.89 19.1 C80.1 22.6, 74.23 26.66, 67.35 28.61 C60.46 30.56, 49.34 31.07, 40.56 30.78 C31.79 30.49, 21.27 28.84, 14.71 26.88 C8.16 24.92, 2.68 22.2, 1.25 19.04 C-0.17 15.87, 1.7 11.07, 6.16 7.89 C10.63 4.71, 18.6 0.73, 28.03 -0.04 C37.46 -0.8, 55.76 2.51, 62.75 3.31 C69.75 4.12, 70.29 4.82, 69.99 4.78 M47.73 1.44 C56.07 2.09, 66.45 4.42, 72.17 6.73 C77.89 9.04, 81.66 12.18, 82.06 15.3 C82.46 18.42, 80.03 22.89, 74.56 25.43 C69.08 27.98, 58.27 29.71, 49.22 30.56 C40.17 31.41, 27.97 31.89, 20.26 30.52 C12.54 29.15, 6.2 25.44, 2.94 22.35 C-0.32 19.26, -2.11 15.36, 0.7 11.96 C3.5 8.57, 12.01 3.74, 19.76 1.97 C27.51 0.19, 42.4 1.77, 47.18 1.31 C51.96 0.84, 48.54 -0.97, 48.45 -0.85" stroke="none" stroke-width="0" fill="#ffff"></path><path d="M35.56 0.8 C43.81 0.39, 55.94 1.29, 63.31 3.09 C70.68 4.88, 77.16 8.34, 79.78 11.55 C82.4 14.77, 82.28 19.47, 79.02 22.4 C75.75 25.33, 67.8 27.63, 60.17 29.13 C52.55 30.62, 41.95 31.87, 33.27 31.38 C24.6 30.88, 13.63 28.94, 8.12 26.13 C2.61 23.33, -0.19 17.88, 0.2 14.53 C0.59 11.19, 4.08 8.37, 10.46 6.06 C16.85 3.74, 33.36 1.59, 38.51 0.65 C43.67 -0.29, 41.26 0.34, 41.39 0.43 M33.05 -0.44 C41.12 -1.08, 51.76 1.06, 59.41 2.93 C67.06 4.79, 75.68 8.04, 78.95 10.75 C82.22 13.46, 81.85 16.15, 79.03 19.21 C76.21 22.27, 69.24 27.26, 62.05 29.1 C54.85 30.95, 44.43 30.79, 35.87 30.27 C27.32 29.74, 16.49 28.43, 10.74 25.95 C4.98 23.48, 1.44 18.69, 1.36 15.4 C1.28 12.1, 4.88 8.73, 10.24 6.21 C15.61 3.69, 29.76 1.17, 33.55 0.27 C37.34 -0.64, 33.06 0.28, 33 0.76" stroke="#000000" stroke-width="1" fill="none"></path></g><g stroke-linecap="round"><g transform="translate(210.80163923740588 416.2816828749362) rotate(0 50.06018102908445 20.65760738723202)" fill-rule="evenodd"><path d="M0 0 C0 0, 0 0, 0 0 M0 0 C0 0, 0 0, 0 0 M0.58 5.67 C1.92 4.62, 2.55 2.92, 3.83 1.96 M0.53 5.45 C1.75 4.52, 2.81 3.03, 3.72 1.65 M0.16 11.64 C0.82 10.53, 3.43 7.79, 7.64 4.67 M0.11 12.42 C2.19 9.46, 4.19 6.55, 7.68 3.76 M0.6 17.33 C3.95 14.74, 8.82 8.27, 10.25 6.65 M0.02 18.38 C3.46 15.01, 5.52 11.51, 10.57 6.27 M0.9 20.62 C4.18 17.42, 8.37 13.98, 13.86 8.38 M1.45 21.34 C6.97 17.08, 10.73 12.04, 14.57 7.57 M4.49 29.32 C7.05 22.39, 11.6 14.72, 17.37 10.2 M1.83 26.58 C7.15 22.38, 10.73 18.93, 17.91 9.89 M3.81 32.22 C11.63 26.92, 16.34 20.45, 20.67 12.49 M4.59 31.44 C9.85 26.57, 13.02 22.04, 21.57 11.76 M7.61 31.73 C13.12 29.92, 17.8 24.89, 28.31 10.57 M8.39 33.64 C12.37 29.42, 16.48 24.51, 26.69 12.99 M12.92 33.37 C16.75 28.03, 21.62 21.92, 31.5 13.41 M12.24 35.7 C19.53 27.19, 27.43 17.83, 30.86 13.54 M14.87 36.81 C24.64 26.53, 30.69 20.88, 38.02 14.57 M15.82 35.98 C20.67 30.64, 26.72 24.46, 35.64 13.42 M18.76 37.06 C28.91 28.55, 35.75 18.48, 42.92 14.64 M19.12 38.89 C26.96 30.11, 32.73 22.42, 41.75 13.09 M23.24 37.65 C29.86 29.69, 40.08 22.14, 45.8 12.91 M24.16 40.03 C32.48 29.58, 40.2 22.5, 45.94 14.08 M29.71 38.84 C35.3 33.26, 42.22 26.28, 50.82 12.34 M29.9 39.33 C37.64 30.3, 44.99 21.87, 51.48 13.92 M34.29 38.53 C40.63 32.32, 42.92 27.35, 57.99 13.49 M34.78 39.99 C41.04 33.16, 47.44 25.68, 57 13.08 M38.47 42.49 C42.18 33.74, 48.46 29.91, 64.49 13.92 M38.82 39.6 C45.95 32.15, 52.38 24.1, 62.37 12.32 M43.71 42.75 C48.44 35.91, 52.78 29.9, 67.99 14.19 M44.86 40.58 C52.39 31.66, 59.59 22.82, 67.52 13.62 M48.81 41.29 C55.8 32.23, 64.81 25.68, 71.9 12.73 M49.37 40.8 C55.06 33.72, 61.81 27.64, 74.19 13.07 M51.86 41.28 C59.55 36.19, 68.11 23.96, 80.8 12.84 M52.97 42.79 C59.19 34.84, 66.65 27.82, 80.98 10.83 M57.51 43.95 C70.38 30.36, 77.83 18.09, 87.02 12.09 M59.24 43.56 C64.79 35.23, 70.96 29.44, 86.36 10.48 M62.39 41.57 C78.37 26.26, 88.91 9.74, 100.48 0.72 M64.65 41.59 C76.65 28.69, 88.26 13.29, 100.12 2.38 M68.33 40.13 C77.7 33.62, 82.38 25.37, 100.56 7.55 M69.33 40.47 C80.04 29.66, 89.74 19.6, 99.74 5.61 M77.06 42.29 C81.72 31.68, 89.2 24.8, 101.82 10.78 M76.28 41.76 C83.32 32.5, 90.94 23.91, 103.64 9.64 M82.18 40.04 C85.8 34.45, 94.93 24.61, 100.79 15.48 M80.87 42.71 C88.19 33.12, 96.83 22.96, 102.48 15.9 M89 39.1 C91.21 34.88, 98.03 28.09, 99.51 23.68 M87.27 38.58 C91.77 34.31, 96.23 29.54, 100.31 24.75" stroke="#000000" stroke-width="0.5" fill="none"></path><path d="M-0.77 -0.33 C-0.91 1.66, -0.12 7.23, 0.3 11.94 C0.71 16.64, -0.61 23.74, 1.73 27.92 C4.08 32.1, 8.84 34.7, 14.37 37 C19.9 39.31, 26.24 41, 34.91 41.78 C43.58 42.56, 57.9 42.58, 66.39 41.71 C74.88 40.84, 80.51 38.56, 85.86 36.56 C91.2 34.55, 96.25 33.04, 98.44 29.68 C100.63 26.32, 98.83 21.26, 99 16.4 C99.17 11.54, 99.97 2.56, 99.47 0.52 C98.97 -1.51, 98.51 2.75, 96.02 4.21 C93.53 5.67, 89.68 7.96, 84.53 9.31 C79.38 10.65, 72.9 11.85, 65.12 12.3 C57.34 12.75, 46.3 12.8, 37.84 12.01 C29.38 11.21, 20.68 9.49, 14.34 7.53 C8 5.56, 2.3 1.64, -0.2 0.21 M1.03 -1.54 C0.64 0.58, -0.59 8.45, -0.61 13.04 C-0.63 17.62, -1.65 22.36, 0.9 25.99 C3.44 29.63, 8.71 32.1, 14.66 34.86 C20.62 37.62, 27.82 41.51, 36.64 42.55 C45.45 43.58, 59.28 41.76, 67.56 41.08 C75.84 40.41, 81.27 40.43, 86.32 38.5 C91.38 36.56, 95.51 33.3, 97.9 29.46 C100.29 25.62, 100.26 20.42, 100.66 15.46 C101.07 10.5, 101.09 1.91, 100.34 -0.32 C99.6 -2.55, 99.07 0.5, 96.18 2.09 C93.3 3.69, 88.19 7.7, 83.02 9.27 C77.86 10.85, 72.79 11.16, 65.18 11.54 C57.58 11.92, 45.85 11.77, 37.38 11.55 C28.92 11.32, 20.51 11.85, 14.41 10.19 C8.3 8.53, 2.89 3.41, 0.74 1.58" stroke="#000000" stroke-width="1" fill="none"></path></g></g><g stroke-linecap="round"><g transform="translate(210.8523480167721 449.955153933113) rotate(0 49.83714100481302 19.49387196562492)" fill-rule="evenodd"><path d="M0 0 C0 0, 0 0, 0 0 M0 0 C0 0, 0 0, 0 0 M0.42 5.98 C1.99 3.97, 2.91 2.97, 3.76 2.16 M0.2 5.83 C1.63 4.53, 2.5 3.36, 3.45 1.66 M-0.27 11.22 C3.17 9.1, 4.98 6.02, 8.28 3.77 M0.52 11.98 C2.91 8.53, 5.37 5.83, 7.37 4.03 M0.15 17.51 C3.78 16.53, 3.3 12.62, 11.33 4.99 M1.27 18.12 C4.44 13.51, 7.46 9.7, 10.93 5.59 M1.03 20.19 C4.84 17.56, 8.39 14.93, 14.19 8.86 M1.76 22.59 C5.46 18.56, 8.39 14.58, 13.38 8.54 M4.49 27.01 C7.16 21.96, 9.07 18.34, 17.07 9.23 M1.75 28.37 C7.16 22.21, 13.32 16.1, 16.75 10.06 M7.03 31.91 C12.54 25.81, 16.91 17.37, 22.57 10.34 M6.25 30.6 C9.94 25.37, 13.96 21.78, 21.84 10.71 M6.94 33.14 C14.98 28.01, 19.8 24.13, 25.27 10.13 M8.85 32.76 C13.89 27.51, 18.24 22.73, 27.69 11.33 M10.38 34.09 C15.99 27.97, 20.85 23.69, 32.74 13.77 M12.71 34.89 C20.5 26.45, 27.41 16.92, 32.87 12.53 M17.03 36.99 C21.01 29.11, 29.62 23.99, 38.53 11.56 M16.2 35.06 C23.62 28.21, 30.19 19.84, 37.38 13 M19.09 38.93 C27.65 28.86, 34.62 21.22, 43.22 12.98 M20.92 37.95 C26.17 29.9, 32.52 23.9, 41.68 13.13 M22.89 36.69 C29.9 32.26, 37.35 24.26, 46.12 14.03 M25.28 39.18 C29.34 32.72, 36.76 25.6, 47.29 12.89 M28.71 38.57 C35.99 32.75, 41.88 25.66, 50.94 14.51 M29.2 39.67 C37.87 29.11, 47.14 19.3, 52.52 12.6 M33.03 40.91 C40.72 28.86, 49.67 21.59, 58.12 12.6 M34.49 39.74 C41.67 32.01, 48.18 23.95, 57.71 12.07 M41.62 37.94 C46.22 30.54, 55.76 23.68, 64.59 12.42 M38.73 39.44 C44.8 32.67, 50.26 26.58, 62.99 11.71 M46.5 39.83 C54.47 28.78, 63.28 19.73, 68.07 14.61 M44.33 40.14 C49.58 33.49, 54.88 28.87, 67.5 13.6 M49.67 40.01 C55.34 34.41, 63.54 23.65, 74.06 11.57 M49.18 40.37 C57.03 31.88, 65.88 22.91, 74.4 12.28 M51.47 41.96 C64.9 31.73, 71.23 20.29, 81.62 10.15 M52.98 42.22 C59.37 35.24, 66.65 27.42, 79.61 11.97 M60.17 43.78 C64.57 33.86, 70.31 27.79, 88.32 8.58 M59.78 42.32 C66.27 33.1, 75.34 23.55, 86.71 11.06 M63.83 42.77 C76.56 25.64, 88.11 14.08, 98.51 2.59 M63.86 42.05 C77.46 26.94, 88.57 14.05, 100.17 0.69 M69.19 42.49 C81.59 27.79, 92.23 15.17, 101.5 6.86 M69.52 41.08 C77 33.14, 85.23 24.31, 99.56 5.82 M79.35 38.04 C84.06 29.81, 92.51 19.06, 103.71 9.52 M78.82 38.2 C84.91 30.52, 91.68 24.21, 102.57 10.17 M83.59 34.19 C92.88 28.47, 97.88 19.5, 101.75 17.21 M86.27 35.96 C90.15 31.53, 93.44 25.39, 102.17 16.89 M92.98 32.39 C96.48 30.43, 98.44 26.06, 100.65 24.54 M92.66 32.91 C95.3 30.5, 97.63 27.88, 101.29 24.53" stroke="#000000" stroke-width="0.5" fill="none"></path><path d="M-0.33 0.08 C-0.43 2.25, -1.11 7.88, -0.61 12.28 C-0.12 16.68, 0.04 22.78, 2.65 26.46 C5.26 30.13, 9.43 32.16, 15.07 34.32 C20.71 36.48, 27.74 38.59, 36.5 39.44 C45.27 40.29, 59.5 39.81, 67.66 39.43 C75.82 39.05, 80.46 39.06, 85.47 37.16 C90.49 35.25, 95.24 31.64, 97.74 28 C100.24 24.36, 100.33 19.83, 100.46 15.32 C100.59 10.81, 99.04 3.02, 98.53 0.94 C98.01 -1.13, 99.56 1.7, 97.38 2.88 C95.2 4.05, 90.75 6.44, 85.45 8 C80.15 9.57, 73.68 11.68, 65.58 12.29 C57.48 12.9, 45.45 12.4, 36.85 11.67 C28.26 10.95, 20.1 9.99, 13.99 7.94 C7.89 5.89, 2.72 0.56, 0.21 -0.62 M1.7 -0.93 C1.98 1.51, 1.56 8.96, 1.66 13.75 C1.76 18.54, -0.05 24.29, 2.3 27.82 C4.64 31.36, 10.21 33, 15.73 34.96 C21.25 36.92, 27.06 39.04, 35.41 39.58 C43.76 40.13, 57.44 38.76, 65.83 38.22 C74.22 37.67, 80.57 38.11, 85.74 36.3 C90.91 34.49, 94.59 31.05, 96.84 27.34 C99.09 23.63, 98.89 18.54, 99.23 14.04 C99.58 9.54, 99.67 2.05, 98.9 0.34 C98.13 -1.37, 97.01 2.59, 94.6 3.77 C92.18 4.95, 89.21 6.09, 84.42 7.41 C79.64 8.74, 73.97 11.08, 65.88 11.72 C57.79 12.35, 44.55 11.96, 35.88 11.22 C27.21 10.48, 19.63 9.1, 13.88 7.28 C8.13 5.46, 3.53 1.79, 1.36 0.3" stroke="#000000" stroke-width="1" fill="none"></path></g></g><g stroke-linecap="round"><g transform="translate(356.4073926468534 379.6878427417589) rotate(0 50.505523900053845 10.91919853646749)" fill-rule="evenodd"><path d="M0 0 C0 0, 0 0, 0 0 M0 0 C0 0, 0 0, 0 0 M1.5 6.11 C3.2 -1.05, 10.96 -5.87, 15.77 -10.18 M0.6 6.62 C5.26 0.24, 12.06 -5.63, 15.01 -9.74 M-1.34 10.3 C5.48 6.18, 13.56 -1.35, 22.73 -13.67 M-0.37 11.68 C7.48 2.68, 15.39 -4.25, 24.02 -14.19 M-0.63 16.86 C13.57 4.5, 24.87 -8.25, 30.67 -15.84 M-0.07 18.34 C10.91 5.29, 20.04 -5.7, 30.18 -17.44 M2.45 21.34 C12.94 11.01, 23.51 -1.39, 38.01 -18.12 M0.8 23.39 C9 12.94, 19.21 1.66, 37.03 -17.56 M2.46 27.61 C16.81 9.49, 31.52 -6.93, 42.77 -18.06 M2.59 27.5 C10.62 16.62, 21.05 6.22, 42.75 -19.36 M4.04 32.66 C20.02 12.94, 39.08 -8.36, 48.23 -20.55 M4.06 32.59 C19.53 12.75, 34.35 -4.4, 49.85 -20.1 M6.29 33.42 C20.79 20.29, 34.46 2.32, 55.39 -18.17 M6.72 34.14 C19.88 19.61, 31.63 6.4, 54.52 -19.3 M11.8 36.59 C24.39 21.91, 35.8 8.89, 59.16 -17.98 M10.81 37.57 C22.53 22.24, 35.46 8.06, 58.86 -20.05 M13.6 38.4 C31.37 20.19, 46.39 3.44, 64.15 -17.15 M14.24 39.55 C25.64 26.46, 36.89 11.4, 63.61 -18.02 M16.26 39 C35.51 17.52, 53.69 -2.75, 66.97 -18.92 M18.66 40.88 C28.58 29.51, 39.4 16.56, 68.42 -17.97 M20.86 39.94 C40.73 21.28, 55.36 3.13, 72 -16.76 M22.37 41.52 C37.68 23.78, 52.52 6.22, 74.55 -17.34 M27.41 41.55 C38.07 29.64, 47.31 17.93, 79 -15.33 M27.72 42.53 C43.26 21.83, 60.37 4.21, 78.55 -17.67 M31.08 40.7 C48.8 23.13, 64.36 2.8, 83.48 -15.92 M31.36 43.31 C50.89 20.99, 71.11 -1.65, 81.49 -15.54 M36.7 44.15 C54.71 26.16, 69.79 5.19, 87.72 -12.64 M37.62 43.52 C50.43 25.54, 66.11 9.32, 86 -15.21 M43.01 42.87 C60.77 21.81, 77.36 4.91, 89.19 -12.81 M42.81 42.91 C58.66 22.26, 78.32 1.91, 89.68 -12.48 M45.73 44.04 C59.26 25.5, 75.22 9.83, 93.44 -8.48 M47.19 43.86 C58.95 32, 69.02 17.88, 93.89 -10.67 M50.58 45.2 C63.37 33.48, 73.39 19.52, 95.91 -5.81 M52.01 45.06 C69.98 23.32, 85.73 4.65, 96.6 -7.49 M56.23 45.71 C67.51 35.3, 75.38 24.03, 100.89 -5.75 M57.41 43.5 C70.26 29.45, 81.53 15.64, 99.29 -4.16 M62.11 42.91 C70.53 32.17, 79.55 23.39, 100.54 -0.02 M62.19 44.2 C71.28 33.51, 80.42 21.86, 100.92 -0.91 M69.34 41.4 C81.4 30.31, 91.05 19.41, 101.96 5.25 M69.74 41.9 C78.76 32.99, 88.86 21.73, 103 4.96 M74.48 42.82 C86.28 30.66, 93.68 20.6, 104.12 6.75 M73.7 42.53 C85.35 30.56, 95.69 17.42, 103.47 8.87 M80.46 41.44 C90.26 31.73, 99.52 19.87, 104.33 13.68 M79.94 43.25 C87.22 32.98, 97.29 23.28, 105.14 14.07 M88.97 38.47 C92.06 36.13, 94.86 31.8, 102.53 21.72 M86.83 38.24 C93.5 32.8, 98.87 27.71, 102.97 22.24" stroke="#000000" stroke-width="0.5" fill="none"></path><path d="M0.05 0.64 C0.07 2.9, -1.08 9.95, -0.93 14.28 C-0.78 18.6, -1.25 22.54, 0.93 26.58 C3.12 30.63, 6.46 35.97, 12.19 38.52 C17.92 41.08, 26.31 41.14, 35.3 41.93 C44.29 42.71, 57.41 43.78, 66.11 43.22 C74.82 42.67, 82.09 41.13, 87.52 38.6 C92.95 36.07, 96.24 32.15, 98.7 28.05 C101.16 23.94, 102.11 19.02, 102.3 13.97 C102.49 8.91, 102.62 2.49, 99.85 -2.27 C97.08 -7.04, 91.83 -11.58, 85.68 -14.63 C79.54 -17.68, 71.68 -19.57, 62.99 -20.6 C54.29 -21.62, 42.25 -21.99, 33.49 -20.8 C24.74 -19.6, 16.21 -16.84, 10.44 -13.42 C4.68 -10, 0.76 -2.54, -1.09 -0.28 M-1.38 -0.07 C-0.92 1.81, 0.92 8.02, 1.18 12.66 C1.44 17.3, -1.67 23.79, 0.2 27.75 C2.06 31.72, 6.68 34.11, 12.37 36.44 C18.06 38.78, 25.16 40.78, 34.35 41.76 C43.53 42.73, 58.55 43.01, 67.48 42.3 C76.41 41.6, 82.37 40.02, 87.92 37.52 C93.47 35.02, 98.57 31.38, 100.78 27.28 C103 23.19, 101.22 17.94, 101.22 12.92 C101.22 7.91, 103.37 1.59, 100.79 -2.81 C98.2 -7.21, 92.27 -10.44, 85.72 -13.48 C79.17 -16.51, 70.21 -20.23, 61.5 -21.04 C52.78 -21.85, 41.5 -19.5, 33.41 -18.33 C25.31 -17.16, 18.72 -16.92, 12.93 -14.03 C7.14 -11.14, 0.81 -3.57, -1.33 -0.99" stroke="#000000" stroke-width="1" fill="none"></path></g></g><g stroke-linecap="round" transform="translate(364.6503415106756 361.4333016757953) rotate(0 41.237976937876056 15.770897695788221)"><path d="M24.49 2.03 C32.17 0.59, 45.06 0.69, 53.47 1.55 C61.88 2.41, 70.13 4.33, 74.94 7.19 C79.76 10.06, 83.4 15.26, 82.35 18.73 C81.3 22.2, 75.02 25.75, 68.65 28.04 C62.28 30.32, 52.73 32.31, 44.14 32.44 C35.56 32.56, 24.37 30.95, 17.13 28.8 C9.88 26.64, 2.82 23.01, 0.66 19.51 C-1.51 16.02, -1.14 11.09, 4.13 7.82 C9.4 4.55, 25.98 1.06, 32.28 -0.1 C38.58 -1.26, 41.59 0.59, 41.94 0.83 M55.14 0.28 C63.04 1.23, 72.49 4.66, 76.71 7.79 C80.93 10.92, 81.81 15.63, 80.44 19.06 C79.08 22.5, 74.92 26.08, 68.52 28.4 C62.12 30.72, 51.31 33.29, 42.05 32.99 C32.79 32.69, 20.01 29.17, 12.95 26.62 C5.88 24.06, 0.74 20.77, -0.35 17.66 C-1.44 14.55, 1.72 10.58, 6.41 7.96 C11.09 5.33, 19.53 2.92, 27.78 1.91 C36.02 0.91, 51.17 1.86, 55.88 1.93 C60.6 1.99, 56.38 2.36, 56.08 2.31" stroke="none" stroke-width="0" fill="#ffff"></path><path d="M57.18 2 C65.24 2.95, 74.74 4.78, 78.77 7.7 C82.8 10.61, 83.53 15.97, 81.36 19.48 C79.18 23, 72.91 26.88, 65.73 28.77 C58.55 30.67, 46.88 31, 38.27 30.85 C29.67 30.7, 20.38 30.08, 14.1 27.86 C7.82 25.65, 1.9 20.98, 0.58 17.58 C-0.74 14.18, 1.43 10.29, 6.16 7.47 C10.9 4.66, 20.3 1.76, 28.99 0.67 C37.68 -0.42, 53.28 0.8, 58.31 0.92 C63.35 1.04, 59.55 1.1, 59.19 1.4 M30.65 1.06 C38.57 0, 50.7 -0.11, 58.47 1.1 C66.25 2.3, 73.31 5.24, 77.29 8.3 C81.27 11.36, 84.27 16.27, 82.36 19.47 C80.46 22.67, 73.18 25.67, 65.88 27.49 C58.58 29.31, 47.43 30.56, 38.55 30.38 C29.67 30.21, 19.22 28.42, 12.61 26.45 C6 24.48, -0.47 21.9, -1.1 18.56 C-1.73 15.22, 3.52 9.49, 8.83 6.4 C14.15 3.3, 27.36 0.89, 30.79 0 C34.22 -0.88, 29.35 0.84, 29.41 1.07" stroke="#000000" stroke-width="1" fill="none"></path></g><g stroke-linecap="round"><g transform="translate(356.8016392374059 416.3727629169157) rotate(0 49.52699459206201 21.0803966693893)" fill-rule="evenodd"><path d="M0 0 C0 0, 0 0, 0 0 M0 0 C0 0, 0 0, 0 0 M0.85 5.25 C1.88 4.46, 2.97 2.74, 3.65 1.97 M0.62 5.87 C1.93 4.24, 2.93 2.69, 3.57 1.69 M0.7 12.5 C1.14 11.03, 3.43 8.23, 6.79 3.18 M0.25 12.5 C2.2 10.43, 4.49 7.23, 6.95 3.42 M0.6 18.72 C3.01 15.63, 6.05 12.79, 10 5.47 M0.35 17.33 C3.67 13.33, 7.7 9.77, 11.06 6.94 M2.79 22.78 C5.43 19.1, 5.99 17.84, 15.11 8.02 M2.82 21.14 C5.95 18.19, 10.29 14.16, 13.71 8.45 M1.35 28.02 C6.68 23.56, 9.02 19.31, 18.46 12.09 M3.31 27.11 C6.11 22.97, 10.09 20.57, 17.22 10.71 M5.76 30.41 C9.52 24.01, 17.5 16.77, 22.35 11.42 M4 30.54 C11.85 23.84, 17.9 15.49, 21.9 11.44 M9.01 31.57 C13.57 29.81, 16.76 22.97, 26.12 11.07 M7.78 33.98 C13.23 28.2, 18.08 20.7, 26.95 13.04 M12.95 35.12 C16.72 30.7, 21.8 23.51, 29.8 13.56 M12.44 34.52 C18.27 26.77, 26.5 18.88, 31.18 12.47 M16.71 37.65 C21.86 31.32, 26.19 23.36, 34.53 13.44 M15.11 36.08 C23.59 27.89, 32.31 18.94, 36.27 12.32 M19.06 37.5 C22.6 32.38, 27.53 26.96, 39.59 15.3 M19.55 38.76 C26.38 30.22, 34.19 21.94, 41.79 12.49 M24.06 39.53 C27.48 34.26, 34.8 26.51, 46.11 13.09 M23.79 39.15 C32.69 30.83, 39.01 21.15, 45.84 13.95 M28.8 39.02 C35.99 34.13, 42.12 26.43, 51.43 14.74 M28.82 40.72 C37.41 29.98, 45.35 22.39, 51.34 12.9 M33.74 38.19 C40.55 33.44, 45.6 27.45, 58.75 11.65 M34.91 39.9 C42.89 28.84, 52.74 19.78, 56.78 12.82 M39.71 39.98 C48.51 31.95, 56.36 20.14, 64.87 13.81 M39.59 40.38 C47.42 29.51, 57.95 19.26, 63.77 13.09 M44.95 42.17 C49.84 32.4, 58.85 27.11, 65.86 15.32 M44.63 40.77 C50.55 32.95, 57.39 26.5, 67.8 13.07 M48.79 40.67 C57.24 33.62, 64.22 20.95, 72.64 12.96 M48.73 40.41 C57.48 30.81, 65.08 22.23, 73.73 12.18 M52.02 44.32 C60.89 34.05, 72.41 21.58, 80.86 12.78 M51.8 43.72 C61.82 32.42, 70.44 21.16, 80.68 11.04 M58.51 43.44 C70.55 28.66, 79.15 17.52, 87.82 11.14 M57.61 43.25 C64.87 35.23, 70.28 27.66, 86.83 10.01 M63 42.45 C72.38 32.86, 80.94 23.03, 100.68 0.73 M63.52 41.88 C75.6 28.16, 88.11 13.62, 98.72 1.78 M70.74 42.13 C76.68 34.08, 83.82 23.07, 98.72 8.12 M71.07 41.54 C77.52 33.97, 84.04 25.06, 99.4 6.41 M74.5 42.21 C84.48 29.12, 94.79 22.52, 101.44 8.13 M75 41.4 C84.02 31, 94.28 21.18, 103.5 10.29 M80.96 41.67 C85.26 35.39, 91.82 31.25, 101.65 17.03 M80.58 42.69 C89.15 32.64, 95.63 24.04, 102.34 16.81 M88.92 38.76 C91.43 34.34, 96.16 29.56, 99.54 22.18 M87.79 40.19 C91.17 35.82, 92.15 32.5, 100.9 24.55" stroke="#000000" stroke-width="0.5" fill="none"></path><path d="M-1.15 0.96 C-1.11 2.93, -0.21 7.97, 0.27 12.48 C0.75 17, -0.76 24.26, 1.73 28.04 C4.23 31.82, 9.61 32.94, 15.27 35.15 C20.93 37.36, 27.17 40.25, 35.69 41.3 C44.21 42.34, 58.16 42.23, 66.4 41.42 C74.64 40.62, 79.76 38.36, 85.13 36.47 C90.51 34.58, 96.16 33.61, 98.63 30.1 C101.1 26.58, 99.92 20.14, 99.94 15.39 C99.95 10.64, 99.36 3.64, 98.73 1.6 C98.1 -0.45, 98.6 2.06, 96.17 3.11 C93.73 4.15, 89.38 6.49, 84.11 7.87 C78.84 9.24, 72.53 10.63, 64.56 11.36 C56.59 12.09, 44.67 12.72, 36.28 12.24 C27.89 11.76, 20.27 10.51, 14.2 8.48 C8.14 6.46, 2.18 1.54, -0.12 0.1 M0.45 0.42 C0.33 2.51, -0.72 9.58, -0.65 13.87 C-0.57 18.16, -1.88 22.53, 0.9 26.17 C3.68 29.81, 10.49 33.09, 16.03 35.69 C21.57 38.3, 25.58 40.98, 34.17 41.81 C42.76 42.63, 59.06 41.23, 67.57 40.65 C76.08 40.08, 80.12 40.12, 85.22 38.36 C90.33 36.6, 95.99 34.17, 98.19 30.1 C100.39 26.02, 98.26 18.71, 98.43 13.91 C98.6 9.12, 99.55 2.95, 99.21 1.31 C98.88 -0.33, 98.6 3.12, 96.41 4.08 C94.21 5.04, 91.39 5.46, 86.04 7.07 C80.69 8.69, 72.22 12.97, 64.32 13.77 C56.43 14.58, 47.02 12.86, 38.66 11.9 C30.31 10.93, 20.5 9.73, 14.2 7.98 C7.9 6.24, 3.32 2.64, 0.85 1.4" stroke="#000000" stroke-width="1" fill="none"></path></g></g><g stroke-linecap="round"><g transform="translate(356.8523480167721 450.0462339750925) rotate(0 50.154190923151646 19.572649448872767)" fill-rule="evenodd"><path d="M0 0 C0 0, 0 0, 0 0 M0 0 C0 0, 0 0, 0 0 M0 6.04 C1.16 5.2, 1.39 3.93, 3.78 2.36 M0.62 5.85 C1.28 4.61, 2.01 3.68, 3.49 1.65 M0.6 11.48 C2.76 10.04, 3.6 7.13, 6.8 3.34 M0.59 12.19 C2.74 10.23, 3.76 6.98, 7.03 3.51 M1.64 17.66 C5.01 14.09, 8.66 9.11, 10.07 6.66 M0.15 17.27 C4.12 13.4, 8.52 9.71, 11.64 4.82 M3.19 22.72 C6.43 16.05, 12.09 13.2, 13.83 8.35 M1.56 21.84 C5.64 19.19, 8.63 14.81, 14.26 7.96 M3.19 27.58 C7.45 21.26, 11.91 19.22, 18.96 8.68 M2.27 27.56 C5.78 23.74, 11.01 18.71, 17.57 10.64 M5.22 28.71 C9.45 26.25, 12.86 21.81, 21.5 13.2 M5.35 30.33 C10.48 25.06, 13.94 20.91, 21.52 10.82 M6.77 33.51 C16.25 25.22, 20.66 19.11, 25.77 11.41 M9.18 32.64 C15.74 25.1, 20.55 19.17, 27.75 11.45 M12.13 34.16 C21.89 24.65, 28.86 15.27, 32.9 13.39 M11.53 33.86 C18.43 27.49, 25.17 19.98, 31.8 11.78 M17.88 35.93 C25.9 25.55, 32.3 16.09, 37.4 13.98 M16.3 35.4 C22.64 30.08, 28.26 22.96, 36.28 11.51 M19.53 35.64 C26.09 28.79, 32.34 21.72, 43.88 13.25 M20.79 37.08 C26.64 30.65, 32.78 23.75, 41.07 12.16 M24.78 36.8 C34.61 28.54, 41.96 18.47, 46.3 14.17 M24.4 39.35 C31.78 30.23, 37.8 23.23, 47.17 12.76 M28.9 39.82 C38.87 30.92, 46.02 21.02, 53.33 14.32 M30.6 39.37 C34.87 32.68, 42.27 25.04, 51.5 12.52 M32.69 40.99 C41.43 32.19, 48.93 22.92, 56.28 14.76 M34.39 39 C39.89 32.55, 47.42 24.54, 57.46 13.67 M39.11 40.6 C50.72 28.64, 58.58 19.74, 64.48 14.08 M39.5 38.88 C44.38 34.11, 49.87 27.99, 63.76 12.46 M45.93 39.42 C52.54 31.68, 63.61 18.55, 69.2 13.24 M44.53 39.9 C48.95 34.62, 54.75 29.33, 66.96 13.98 M49.05 40.35 C56.53 33.29, 58.37 27.46, 74.29 13.28 M48.79 40.79 C57.55 30.01, 67.36 20.27, 73.52 12.85 M54.51 41.67 C63.83 33.62, 70.99 21.96, 81.56 12.29 M53.91 42.36 C64.29 29.36, 74.68 18.35, 79.82 12.15 M59.67 43.89 C67.15 30.23, 78.3 19.92, 87.37 8.83 M59.48 42.29 C68.8 30.02, 78.57 19.65, 86.24 9.8 M64.71 40.78 C74.11 30.61, 83.25 23.29, 98.52 2.3 M64.14 41.16 C73.53 31.07, 82.14 19.46, 99.57 0.92 M71.18 40.76 C82.65 27.68, 91.15 13.39, 102.07 4.9 M70.59 41.8 C80.17 30.47, 88.45 18.14, 100.36 6.72 M79.27 38.55 C85.53 29.61, 98.29 16.09, 101.06 10.34 M78.46 37.9 C85.5 31.12, 93.14 22.46, 103.22 9.23 M85.22 35.71 C91.29 29.75, 99.48 20.74, 103.3 17.45 M86.24 36.52 C89.1 30.72, 93.38 27.29, 103.08 15.85 M92.77 33.36 C95.38 30.77, 97.78 25.66, 99.75 22.95 M93.63 33.63 C95.27 29.84, 97.52 27.6, 101.18 23.63" stroke="#000000" stroke-width="0.5" fill="none"></path><path d="M0.96 0.05 C0.84 2.29, -0.37 7.73, -0.07 12.28 C0.24 16.83, 0.55 23.55, 2.77 27.36 C4.98 31.16, 7.67 33.09, 13.21 35.1 C18.76 37.12, 26.99 38.85, 36.02 39.45 C45.04 40.05, 59.15 39.06, 67.38 38.71 C75.6 38.36, 80.25 38.97, 85.38 37.35 C90.51 35.72, 95.81 32.74, 98.16 28.94 C100.5 25.14, 99.21 19.22, 99.45 14.57 C99.69 9.93, 100.13 3.11, 99.6 1.09 C99.07 -0.93, 98.87 1.4, 96.28 2.46 C93.68 3.51, 89.28 6.06, 84.01 7.44 C78.73 8.82, 72.46 10.05, 64.64 10.73 C56.82 11.41, 45.37 11.99, 37.08 11.54 C28.8 11.09, 21.11 9.87, 14.95 8.01 C8.78 6.16, 2.61 1.8, 0.1 0.42 M0 -0.96 C-0.35 1.57, -1.58 9.34, -1.16 13.75 C-0.75 18.17, 0.13 21.8, 2.48 25.53 C4.82 29.26, 7.53 33.81, 12.9 36.16 C18.27 38.5, 25.92 38.83, 34.67 39.6 C43.42 40.36, 56.91 41.28, 65.4 40.78 C73.88 40.27, 80.25 38.59, 85.6 36.59 C90.95 34.58, 94.85 32.1, 97.47 28.77 C100.1 25.43, 100.84 21.27, 101.35 16.57 C101.86 11.87, 101.33 2.8, 100.53 0.56 C99.74 -1.68, 99.02 2.13, 96.58 3.12 C94.14 4.12, 91.24 4.91, 85.89 6.55 C80.53 8.2, 72.73 12.25, 64.45 13 C56.17 13.74, 44.42 11.95, 36.23 11.02 C28.04 10.08, 21.17 9.52, 15.33 7.39 C9.49 5.26, 3.98 -0.59, 1.19 -1.77" stroke="#000000" stroke-width="1" fill="none"></path></g></g><g stroke-linecap="round" transform="translate(503.6250000000002 10) rotate(0 35 159)"><path d="M-0.32 0.15 C25.61 -1.79, 52.15 1.11, 69.79 1.95 M0.97 -0.44 C16.42 -1.12, 34.08 -0.43, 69.14 0.94 M71.04 1.3 C71.31 82.39, 69.19 166.18, 69.83 319.1 M69.91 -0.68 C67.3 74.85, 67.58 149.68, 70.6 318.09 M68.36 317.42 C50.03 319.51, 28.59 319.64, -0.88 317.94 M69.54 318.96 C46.95 318.78, 23.87 318.4, -0.36 317.56 M0.73 317.01 C-1.48 237.53, -2.64 155.51, 1.02 0.33 M-0.12 317.81 C-0.53 198.25, 0.63 79.79, -0.64 -0.45" stroke="#000000" stroke-width="1" fill="none"></path></g><g transform="translate(485.3750000000002 146.125) rotate(270 53 25)"><text x="53" y="18" font-family="Virgil, Segoe UI Emoji" font-size="20px" fill="#000000" text-anchor="middle" style="white-space: pre;" direction="ltr">Interfaces</text><text x="53" y="43" font-family="Virgil, Segoe UI Emoji" font-size="20px" fill="#000000" text-anchor="middle" style="white-space: pre;" direction="ltr">(APIs)</text></g><g stroke-linecap="round"><g transform="translate(589.3750000000002 80.875) rotate(0 0.1934100469037503 89.13263528819601)"><path d="M-1.15 -1.05 C-1.29 28.52, -1.05 147.89, -0.75 177.86 M0.45 1.02 C0.69 30.74, 1.6 150.01, 1.58 179.31" stroke="#000000" stroke-width="1" fill="none"></path></g></g><g stroke-linecap="round"><g transform="translate(589.8798661233336 258.5466745725282) rotate(0 5.604656616459124 -46.7364003366518)"><path d="M1.03 1.03 C2.84 -14.79, 9.25 -78.75, 11.09 -94.5 M0.12 0.52 C1.7 -15.15, 8 -77.12, 9.93 -93.12" stroke="#000000" stroke-width="1" fill="none"></path></g></g><g stroke-linecap="round"><g transform="translate(601.6046115086478 164.59272633887065) rotate(0 -6.512419076602782 -41.964679052808236)"><path d="M-0.05 0.18 C-2.24 -13.78, -10.21 -70.2, -12.22 -84.11 M-1.54 -0.77 C-3.93 -14.57, -11.12 -69.48, -12.97 -83.02" stroke="#000000" stroke-width="1" fill="none"></path></g></g><g stroke-linecap="round"><g transform="translate(694.9839609427866 26.215432278732578) rotate(180 -0.022410498369822562 61.25176733991262)"><path d="M0.49 -0.4 C0.54 20.15, 0.71 102.24, 0.67 122.77 M-0.72 -1.66 C-0.8 19.11, 0.02 103.23, 0.07 124.16" stroke="#000000" stroke-width="1" fill="none"></path></g></g><g stroke-linecap="round"><g transform="translate(687.4122696355671 92.11381947156758) rotate(180 3.6376419669174993 -33.11995170096537)"><path d="M-0.4 0.67 C0.96 -10.23, 6.33 -53.78, 7.68 -64.9 M1.59 -0.03 C2.82 -11.36, 5.72 -56.04, 6.59 -66.91" stroke="#000000" stroke-width="1" fill="none"></path></g></g><g stroke-linecap="round"><g transform="translate(695.1739305801084 149.37834732673792) rotate(180 -4.327859170597435 -29.049330870371506)"><path d="M0.67 -0.27 C-0.83 -9.84, -6.77 -48.26, -8.49 -57.83 M-0.44 -1.46 C-2.12 -10.82, -8.19 -47.27, -9.32 -56.44" stroke="#000000" stroke-width="1" fill="none"></path></g></g><g stroke-linecap="round" transform="translate(29.778566806146273 34.80984014649971) rotate(0 29.72794245612471 17.791838401694463)"><path d="M-0.56 0.85 C16.41 0.96, 36.95 0.81, 57.82 -1.19 M-0.24 0.09 C15.83 0.03, 32.86 -0.33, 58.51 -0.13 M58.58 1.56 C60.43 10.16, 60.23 16.23, 60.5 35.5 M59.59 1 C59.18 12.19, 58.39 23.06, 59.96 35.26 M58.48 36.94 C43.96 36.33, 30.41 36.88, -1.01 34.08 M58.52 35.99 C46.95 36, 34.76 34.67, -0.8 35.86 M0.25 37.29 C0.67 26.8, 1.47 23.01, 0.07 1.23 M-0.49 35.57 C-0.45 21.12, -0.28 7.6, 0.26 0.42" stroke="#000000" stroke-width="1" fill="none"></path></g><g stroke-linecap="round"><g transform="translate(28.460891400110313 39.48589158101595) rotate(0 30.545777189925843 -0.35637326289898397)"><path d="M-0.34 0.51 C9.38 0.62, 48.93 0.56, 59.12 0.55 M1.69 -0.27 C11.72 -0.51, 51.62 -1.06, 61.43 -1.29" stroke="#000000" stroke-width="1" fill="none"></path></g></g><g stroke-linecap="round" transform="translate(31.86514888899137 36.795782787099824) rotate(0 1.162756604983997 1.162756604983997)"><path d="M1.16 0 C1.4 -0.01, 1.72 0.11, 1.91 0.27 C2.1 0.43, 2.26 0.72, 2.31 0.96 C2.35 1.21, 2.29 1.53, 2.17 1.74 C2.05 1.96, 1.79 2.17, 1.56 2.26 C1.33 2.34, 1 2.34, 0.77 2.26 C0.53 2.17, 0.28 1.96, 0.16 1.74 C0.03 1.53, -0.03 1.21, 0.02 0.96 C0.06 0.72, 0.22 0.43, 0.42 0.27 C0.61 0.11, 1.04 0.04, 1.16 0 C1.29 -0.04, 1.16 0, 1.16 0.02 M1.16 0 C1.4 -0.01, 1.72 0.11, 1.91 0.27 C2.1 0.43, 2.26 0.72, 2.31 0.96 C2.35 1.21, 2.29 1.53, 2.17 1.74 C2.05 1.96, 1.79 2.17, 1.56 2.26 C1.33 2.34, 1 2.34, 0.77 2.26 C0.53 2.17, 0.28 1.96, 0.16 1.74 C0.03 1.53, -0.03 1.21, 0.02 0.96 C0.06 0.72, 0.22 0.43, 0.42 0.27 C0.61 0.11, 1.04 0.04, 1.16 0 C1.29 -0.04, 1.16 0, 1.16 0.02" stroke="none" stroke-width="0" fill="#fa5252"></path><path d="M1.16 0 C1.4 -0.01, 1.72 0.11, 1.91 0.27 C2.1 0.43, 2.26 0.72, 2.31 0.96 C2.35 1.21, 2.29 1.53, 2.17 1.74 C2.05 1.96, 1.79 2.17, 1.56 2.26 C1.33 2.34, 1 2.34, 0.77 2.26 C0.53 2.17, 0.28 1.96, 0.16 1.74 C0.03 1.53, -0.03 1.21, 0.02 0.96 C0.06 0.72, 0.22 0.43, 0.42 0.27 C0.61 0.11, 1.04 0.04, 1.16 0 C1.29 -0.04, 1.16 0, 1.16 0.02 M1.16 0 C1.4 -0.01, 1.72 0.11, 1.91 0.27 C2.1 0.43, 2.26 0.72, 2.31 0.96 C2.35 1.21, 2.29 1.53, 2.17 1.74 C2.05 1.96, 1.79 2.17, 1.56 2.26 C1.33 2.34, 1 2.34, 0.77 2.26 C0.53 2.17, 0.28 1.96, 0.16 1.74 C0.03 1.53, -0.03 1.21, 0.02 0.96 C0.06 0.72, 0.22 0.43, 0.42 0.27 C0.61 0.11, 1.04 0.04, 1.16 0 C1.29 -0.04, 1.16 0, 1.16 0.02" stroke="#000000" stroke-width="1" fill="none"></path></g><g stroke-linecap="round" transform="translate(36.63649178699052 36.795782787099824) rotate(0 1.162756604983997 1.162756604983997)"><path d="M1.16 0 C1.4 -0.01, 1.72 0.11, 1.91 0.27 C2.1 0.43, 2.26 0.72, 2.31 0.96 C2.35 1.21, 2.29 1.53, 2.17 1.74 C2.05 1.96, 1.79 2.17, 1.56 2.26 C1.33 2.34, 1 2.34, 0.77 2.26 C0.53 2.17, 0.28 1.96, 0.16 1.74 C0.03 1.53, -0.03 1.21, 0.02 0.96 C0.06 0.72, 0.22 0.43, 0.42 0.27 C0.61 0.11, 1.04 0.04, 1.16 0 C1.29 -0.04, 1.16 0, 1.16 0.02 M1.16 0 C1.4 -0.01, 1.72 0.11, 1.91 0.27 C2.1 0.43, 2.26 0.72, 2.31 0.96 C2.35 1.21, 2.29 1.53, 2.17 1.74 C2.05 1.96, 1.79 2.17, 1.56 2.26 C1.33 2.34, 1 2.34, 0.77 2.26 C0.53 2.17, 0.28 1.96, 0.16 1.74 C0.03 1.53, -0.03 1.21, 0.02 0.96 C0.06 0.72, 0.22 0.43, 0.42 0.27 C0.61 0.11, 1.04 0.04, 1.16 0 C1.29 -0.04, 1.16 0, 1.16 0.02" stroke="none" stroke-width="0" fill="#fab005"></path><path d="M1.16 0 C1.4 -0.01, 1.72 0.11, 1.91 0.27 C2.1 0.43, 2.26 0.72, 2.31 0.96 C2.35 1.21, 2.29 1.53, 2.17 1.74 C2.05 1.96, 1.79 2.17, 1.56 2.26 C1.33 2.34, 1 2.34, 0.77 2.26 C0.53 2.17, 0.28 1.96, 0.16 1.74 C0.03 1.53, -0.03 1.21, 0.02 0.96 C0.06 0.72, 0.22 0.43, 0.42 0.27 C0.61 0.11, 1.04 0.04, 1.16 0 C1.29 -0.04, 1.16 0, 1.16 0.02 M1.16 0 C1.4 -0.01, 1.72 0.11, 1.91 0.27 C2.1 0.43, 2.26 0.72, 2.31 0.96 C2.35 1.21, 2.29 1.53, 2.17 1.74 C2.05 1.96, 1.79 2.17, 1.56 2.26 C1.33 2.34, 1 2.34, 0.77 2.26 C0.53 2.17, 0.28 1.96, 0.16 1.74 C0.03 1.53, -0.03 1.21, 0.02 0.96 C0.06 0.72, 0.22 0.43, 0.42 0.27 C0.61 0.11, 1.04 0.04, 1.16 0 C1.29 -0.04, 1.16 0, 1.16 0.02" stroke="#000000" stroke-width="1" fill="none"></path></g><g stroke-linecap="round" transform="translate(41.617384429079266 37.00533253118772) rotate(0 1.162756604983997 1.162756604983997)"><path d="M1.16 0 C1.4 -0.01, 1.72 0.11, 1.91 0.27 C2.1 0.43, 2.26 0.72, 2.31 0.96 C2.35 1.21, 2.29 1.53, 2.17 1.74 C2.05 1.96, 1.79 2.17, 1.56 2.26 C1.33 2.34, 1 2.34, 0.77 2.26 C0.53 2.17, 0.28 1.96, 0.16 1.74 C0.03 1.53, -0.03 1.21, 0.02 0.96 C0.06 0.72, 0.22 0.43, 0.42 0.27 C0.61 0.11, 1.04 0.04, 1.16 0 C1.29 -0.04, 1.16 0, 1.16 0.02 M1.16 0 C1.4 -0.01, 1.72 0.11, 1.91 0.27 C2.1 0.43, 2.26 0.72, 2.31 0.96 C2.35 1.21, 2.29 1.53, 2.17 1.74 C2.05 1.96, 1.79 2.17, 1.56 2.26 C1.33 2.34, 1 2.34, 0.77 2.26 C0.53 2.17, 0.28 1.96, 0.16 1.74 C0.03 1.53, -0.03 1.21, 0.02 0.96 C0.06 0.72, 0.22 0.43, 0.42 0.27 C0.61 0.11, 1.04 0.04, 1.16 0 C1.29 -0.04, 1.16 0, 1.16 0.02" stroke="none" stroke-width="0" fill="#40c057"></path><path d="M1.16 0 C1.4 -0.01, 1.72 0.11, 1.91 0.27 C2.1 0.43, 2.26 0.72, 2.31 0.96 C2.35 1.21, 2.29 1.53, 2.17 1.74 C2.05 1.96, 1.79 2.17, 1.56 2.26 C1.33 2.34, 1 2.34, 0.77 2.26 C0.53 2.17, 0.28 1.96, 0.16 1.74 C0.03 1.53, -0.03 1.21, 0.02 0.96 C0.06 0.72, 0.22 0.43, 0.42 0.27 C0.61 0.11, 1.04 0.04, 1.16 0 C1.29 -0.04, 1.16 0, 1.16 0.02 M1.16 0 C1.4 -0.01, 1.72 0.11, 1.91 0.27 C2.1 0.43, 2.26 0.72, 2.31 0.96 C2.35 1.21, 2.29 1.53, 2.17 1.74 C2.05 1.96, 1.79 2.17, 1.56 2.26 C1.33 2.34, 1 2.34, 0.77 2.26 C0.53 2.17, 0.28 1.96, 0.16 1.74 C0.03 1.53, -0.03 1.21, 0.02 0.96 C0.06 0.72, 0.22 0.43, 0.42 0.27 C0.61 0.11, 1.04 0.04, 1.16 0 C1.29 -0.04, 1.16 0, 1.16 0.02" stroke="#000000" stroke-width="1" fill="none"></path></g><g stroke-opacity="0.9" fill-opacity="0.9" stroke-linecap="round" transform="translate(49.06870216775519 44.46841643945697) rotate(0 9.930760330528528 9.930760330528528)"><path d="M10.9 0.22 C13.23 0.39, 16.8 1.99, 18.17 3.68 C19.53 5.37, 18.99 8.31, 19.08 10.38 C19.17 12.45, 19.79 14.39, 18.71 16.08 C17.63 17.77, 14.75 20.06, 12.6 20.53 C10.46 21, 7.91 20.05, 5.85 18.9 C3.78 17.75, 1.16 15.74, 0.23 13.63 C-0.71 11.51, -0.48 8.29, 0.25 6.21 C0.98 4.13, 2.63 2.09, 4.6 1.16 C6.57 0.22, 10.93 0.63, 12.06 0.6 C13.19 0.56, 11.36 0.86, 11.39 0.92 M14.36 0.11 C16.18 0.72, 18.47 1.71, 19.52 3.87 C20.57 6.02, 21.04 10.47, 20.66 13.04 C20.29 15.6, 19.27 18.02, 17.28 19.24 C15.28 20.47, 10.93 20.58, 8.67 20.41 C6.42 20.24, 5.43 19.9, 3.75 18.21 C2.07 16.52, -0.89 12.67, -1.39 10.25 C-1.89 7.83, -0.72 5.45, 0.73 3.68 C2.19 1.9, 5.26 0.24, 7.34 -0.42 C9.43 -1.07, 12.31 -0.66, 13.25 -0.24 C14.19 0.17, 12.85 1.65, 12.98 2.08" stroke="none" stroke-width="0" fill="#04aaf7"></path><path d="M6.07 1.81 C7.93 0.94, 10.66 -0.05, 12.52 0.5 C14.39 1.04, 16.17 3.27, 17.27 5.08 C18.36 6.88, 19.34 9.34, 19.09 11.33 C18.85 13.32, 17.32 15.67, 15.81 17.02 C14.31 18.36, 12.18 19.3, 10.06 19.38 C7.95 19.45, 4.64 18.57, 3.14 17.47 C1.64 16.38, 1.31 14.73, 1.05 12.81 C0.8 10.89, 0.57 7.98, 1.61 5.96 C2.66 3.94, 5.82 1.57, 7.3 0.67 C8.77 -0.22, 10.42 0.5, 10.48 0.58 M10.9 -1.2 C12.46 -1.06, 14.07 1.97, 15.47 3.52 C16.88 5.07, 19.01 6.1, 19.32 8.09 C19.63 10.08, 18.56 13.4, 17.34 15.46 C16.11 17.53, 13.96 19.8, 11.98 20.49 C9.99 21.17, 7.18 20.44, 5.42 19.58 C3.67 18.71, 2.45 17.48, 1.46 15.29 C0.48 13.1, -0.68 8.53, -0.47 6.44 C-0.27 4.36, 0.93 4.06, 2.68 2.76 C4.42 1.46, 8.57 -0.91, 9.99 -1.38 C11.4 -1.84, 10.93 -0.41, 11.18 -0.01" stroke="#000000" stroke-width="1" fill="none"></path></g><g stroke-linecap="round"><g transform="translate(61.65791015394552 52.0114589482904) rotate(0 -1.6118611446783575 3.012623545973156)" fill-rule="evenodd"><path d="M0 0 L-3.52 -2.92 L-5.28 -2.02 L-5.86 1.1 L-5.24 3.13 L-8.1 4.13 L-8 6.34 L-5.76 6.21 L-4.04 4.41 L-0.69 9.01 L-0.19 8.45 L-1.76 2.23 L-0.71 1.69 L1.47 2.73 L4.29 2.73 L5.02 0.3 L1.96 0.52 L2.55 -2.68 L1.15 -2.49 L0 0" stroke="none" stroke-width="0" fill="#40c057" fill-rule="evenodd"></path><path d="M0 0 C-0.14 -0.03, -0.26 0.29, -0.85 -0.19 C-1.44 -0.68, -2.78 -2.61, -3.52 -2.92 C-4.26 -3.22, -4.89 -2.69, -5.28 -2.02 C-5.67 -1.35, -5.87 0.24, -5.86 1.1 C-5.86 1.96, -4.87 2.63, -5.24 3.13 C-5.61 3.64, -7.64 3.6, -8.1 4.13 C-8.56 4.67, -8.39 6, -8 6.34 C-7.61 6.69, -6.42 6.53, -5.76 6.21 C-5.1 5.88, -4.72 4.06, -4.04 4.41 C-3.36 4.76, -2.32 7.63, -1.68 8.31 C-1.04 8.98, -0.18 9.46, -0.19 8.45 C-0.21 7.43, -1.9 3.3, -1.76 2.23 C-1.62 1.16, 0.11 1.94, 0.64 2.02 C1.18 2.1, 0.86 2.61, 1.47 2.73 C2.08 2.85, 3.7 3.13, 4.29 2.73 C4.89 2.32, 5.41 0.66, 5.02 0.3 C4.63 -0.07, 2.37 1.01, 1.96 0.52 C1.55 0.02, 2.69 -2.18, 2.55 -2.68 C2.42 -3.18, 1.59 -2.86, 1.15 -2.49 C0.71 -2.11, 0.08 -0.84, -0.11 -0.43 C-0.3 -0.01, -0.02 -0.07, 0 0 M0 0 C-0.14 -0.03, -0.26 0.29, -0.85 -0.19 C-1.44 -0.68, -2.78 -2.61, -3.52 -2.92 C-4.26 -3.22, -4.89 -2.69, -5.28 -2.02 C-5.67 -1.35, -5.87 0.24, -5.86 1.1 C-5.86 1.96, -4.87 2.63, -5.24 3.13 C-5.61 3.64, -7.64 3.6, -8.1 4.13 C-8.56 4.67, -8.39 6, -8 6.34 C-7.61 6.69, -6.42 6.53, -5.76 6.21 C-5.1 5.88, -4.72 4.06, -4.04 4.41 C-3.36 4.76, -2.32 7.63, -1.68 8.31 C-1.04 8.98, -0.18 9.46, -0.19 8.45 C-0.21 7.43, -1.9 3.3, -1.76 2.23 C-1.62 1.16, 0.11 1.94, 0.64 2.02 C1.18 2.1, 0.86 2.61, 1.47 2.73 C2.08 2.85, 3.7 3.13, 4.29 2.73 C4.89 2.32, 5.41 0.66, 5.02 0.3 C4.63 -0.07, 2.37 1.01, 1.96 0.52 C1.55 0.02, 2.69 -2.18, 2.55 -2.68 C2.42 -3.18, 1.59 -2.86, 1.15 -2.49 C0.71 -2.11, 0.08 -0.84, -0.11 -0.43 C-0.3 -0.01, -0.02 -0.07, 0 0" stroke="#087f5b" stroke-width="1" fill="none"></path></g></g><g stroke-linecap="round"><g stroke-opacity="0.9" fill-opacity="0.9" transform="translate(49.67531793390708 53.28889936868006) rotate(0 9.187695825945013 0.5086015627896074)"><path d="M-0.98 -0.71 C2.09 -0.77, 15.73 0.03, 19.36 0.1 M0.7 1.53 C3.52 1.64, 14.98 1.8, 18.3 1.7" stroke="#000000" stroke-width="1" fill="none"></path></g></g><g stroke-linecap="round"><g stroke-opacity="0.9" fill-opacity="0.9" transform="translate(51.93000821835949 47.03866013416797) rotate(0 6.815418422689106 1.2216136962853739)"><path d="M0 0 C0.06 0.18, 0.04 0.73, 0.36 1.06 C0.68 1.38, 1.31 1.71, 1.91 1.95 C2.51 2.18, 3.09 2.39, 3.97 2.48 C4.85 2.58, 6.03 2.58, 7.2 2.53 C8.36 2.48, 9.97 2.46, 10.96 2.19 C11.96 1.93, 12.72 1.33, 13.16 0.95 C13.61 0.56, 13.55 0.06, 13.63 -0.12 M0 0 C0.06 0.18, 0.04 0.73, 0.36 1.06 C0.68 1.38, 1.31 1.71, 1.91 1.95 C2.51 2.18, 3.09 2.39, 3.97 2.48 C4.85 2.58, 6.03 2.58, 7.2 2.53 C8.36 2.48, 9.97 2.46, 10.96 2.19 C11.96 1.93, 12.72 1.33, 13.16 0.95 C13.61 0.56, 13.55 0.06, 13.63 -0.12" stroke="#000000" stroke-width="1" fill="none"></path></g></g><g stroke-opacity="0.9" fill-opacity="0.9" stroke-linecap="round" transform="translate(55.68374154372873 43.82564933699831) rotate(0 3.6097478640698455 10.419415893385121)"><path d="M4.38 1.88 C4.97 2.8, 5.98 4.9, 6.26 6.85 C6.55 8.8, 6.29 11.59, 6.09 13.59 C5.88 15.59, 5.68 17.71, 5.04 18.83 C4.39 19.95, 2.76 20.44, 2.2 20.29 C1.64 20.14, 1.96 19.42, 1.69 17.9 C1.42 16.38, 0.87 13.41, 0.57 11.17 C0.27 8.93, -0.51 6.23, -0.13 4.47 C0.25 2.7, 1.98 0.98, 2.84 0.58 C3.71 0.17, 4.48 1.47, 5.04 2.06 C5.6 2.65, 6.13 3.94, 6.21 4.11 M1.7 0.09 C2.44 -1, 3.1 -0.49, 3.8 0.45 C4.5 1.39, 5.41 3.76, 5.9 5.72 C6.38 7.68, 6.58 9.98, 6.69 12.19 C6.79 14.4, 7.13 17.72, 6.52 18.98 C5.92 20.23, 4.13 19.59, 3.06 19.7 C1.98 19.8, 0.66 20.99, 0.07 19.61 C-0.52 18.23, -0.65 13.77, -0.5 11.42 C-0.34 9.07, 0.39 7.26, 1 5.51 C1.61 3.75, 3.13 1.81, 3.16 0.87 C3.19 -0.08, 1.26 -0.07, 1.19 -0.16" stroke="#000000" stroke-width="1" fill="none"></path></g><g stroke-linecap="round"><g stroke-opacity="0.9" fill-opacity="0.9" transform="translate(52.63480595900364 61.79390173349361) rotate(0 6.815418422689106 -1.2611551691771865)"><path d="M0 0 C0.32 -0.33, 1.25 -1.58, 1.91 -2.01 C2.57 -2.44, 3.09 -2.46, 3.97 -2.56 C4.85 -2.67, 6.03 -2.67, 7.2 -2.62 C8.36 -2.56, 9.97 -2.53, 10.96 -2.26 C11.96 -1.99, 12.72 -1.37, 13.16 -0.98 C13.61 -0.58, 13.55 -0.06, 13.63 0.13 M0 0 C0.32 -0.33, 1.25 -1.58, 1.91 -2.01 C2.57 -2.44, 3.09 -2.46, 3.97 -2.56 C4.85 -2.67, 6.03 -2.67, 7.2 -2.62 C8.36 -2.56, 9.97 -2.53, 10.96 -2.26 C11.96 -1.99, 12.72 -1.37, 13.16 -0.98 C13.61 -0.58, 13.55 -0.06, 13.63 0.13" stroke="#000000" stroke-width="1" fill="none"></path></g></g><g stroke-linecap="round" transform="translate(429.5917791055724 30.972855489030565) rotate(0 15.465322103756876 23.65214451096952)"><path d="M0.97 1.29 L29.57 0.62 L30.72 47.63 L0.93 45.59" stroke="none" stroke-width="0" fill="#ced4da"></path><path d="M-1.67 -0.21 C9.65 -0.95, 19.84 -0.18, 29.46 0.09 M0.19 0.81 C6.08 -0.45, 13.5 -0.56, 31.01 -0.13 M29.21 1.86 C32.11 8.25, 29.7 20.79, 31.82 46.72 M31.51 -0.14 C30.75 12.04, 30.52 23.98, 30.56 46.9 M31.56 48.76 C23.39 47.15, 18.62 47.54, -1.27 45.59 M30.35 48.15 C19.31 47.95, 6.93 47.99, 0.28 47.79 M-0.29 47.64 C1.32 34.03, -0.05 22.54, -1.15 1.53 M0.12 47.84 C0.41 35.04, -0.53 25.37, 0.87 0.86" stroke="#000000" stroke-width="1" fill="none"></path></g><g stroke-linecap="round" transform="translate(433.1329978425731 34.579361719145936) rotate(0 12.186194985741508 18.0895245449056)"><path d="M1.29 -1.36 L25 -0.21 L24.7 37.11 L-1.72 36.23" stroke="none" stroke-width="0" fill="#fff"></path><path d="M-0.21 -0.22 C5.53 0.3, 12.92 -1.26, 24.47 -1.71 M0.81 -0.55 C5.92 0.2, 11.97 0.03, 24.24 -0.95 M26.23 1.38 C23.24 8.26, 26.07 19.45, 23.79 35.35 M24.24 -0.48 C24.38 12.43, 24.09 25.9, 23.97 35.4 M25.83 35.51 C18.09 37.68, 12.26 34.99, -1.72 37.78 M25.22 36.31 C15.33 35.53, 5.97 36.32, 0.49 35.7 M0.34 37.14 C-1.18 27.63, -0.73 18.73, 1.53 -1.19 M0.54 36.74 C-1.13 23.78, 0.58 12.99, 0.86 0.49" stroke="#000000" stroke-width="1" fill="none"></path></g><g stroke-linecap="round" transform="translate(442.82351562764893 72.30672158989182) rotate(0 2.4956772006644314 2.4956772006643746)"><path d="M2.36 -0.4 C2.65 -0.67, 2.44 -0.51, 2.82 -0.17 C3.2 0.17, 4.19 1.18, 4.62 1.63 C5.05 2.07, 5.54 2.08, 5.38 2.49 C5.23 2.91, 4.32 3.57, 3.71 4.11 C3.09 4.65, 2.28 5.67, 1.68 5.74 C1.08 5.82, 0.29 5.06, 0.12 4.57 C-0.04 4.08, 0.54 3.31, 0.69 2.81 C0.83 2.32, 0.88 2.14, 1 1.61 C1.13 1.08, 1.01 -0.26, 1.44 -0.37 C1.87 -0.48, 3.32 0.75, 3.61 0.94 M3.13 0.37 C3.91 0.21, 5.01 -0.59, 5.32 -0.1 C5.63 0.39, 5.11 2.75, 5 3.31 C4.9 3.87, 5.33 3.06, 4.68 3.27 C4.04 3.49, 1.87 4.43, 1.13 4.61 C0.38 4.78, 0.38 4.59, 0.22 4.31 C0.06 4.03, 0.17 3.29, 0.18 2.91 C0.18 2.54, -0.07 2.48, 0.24 2.05 C0.54 1.63, 1.45 0.73, 2.01 0.36 C2.56 -0.02, 3.41 -0.25, 3.56 -0.21 C3.71 -0.18, 2.92 0.29, 2.91 0.56" stroke="none" stroke-width="0" fill="#fff"></path><path d="M1.09 0.14 C1.42 -0.08, 1.95 -0.49, 2.67 -0.25 C3.39 0, 4.93 1.14, 5.43 1.61 C5.94 2.08, 6.01 2.04, 5.72 2.57 C5.43 3.1, 4.34 4.36, 3.71 4.77 C3.08 5.19, 2.47 5.31, 1.96 5.06 C1.44 4.82, 1.01 3.57, 0.62 3.33 C0.22 3.09, -0.25 3.83, -0.42 3.61 C-0.6 3.39, -0.96 2.73, -0.42 2.01 C0.12 1.3, 2.43 -0.49, 2.82 -0.7 C3.21 -0.91, 1.96 0.63, 1.92 0.74 M2.85 -0.15 C3.07 -0.46, 2.81 -0.14, 2.96 0.02 C3.11 0.19, 3.52 0.42, 3.75 0.86 C3.98 1.3, 4.5 2.15, 4.32 2.67 C4.13 3.18, 3.08 3.48, 2.65 3.94 C2.21 4.4, 1.85 5.48, 1.7 5.44 C1.55 5.39, 2.02 3.96, 1.73 3.66 C1.44 3.36, 0.11 4.26, -0.05 3.65 C-0.21 3.04, 0.65 0.4, 0.77 0 C0.9 -0.4, 0.27 1, 0.69 1.25 C1.11 1.5, 3.2 1.43, 3.28 1.48" stroke="#000000" stroke-width="1" fill="none"></path></g><g stroke-linecap="round" transform="translate(436.7493353969696 39.18475490721835) rotate(0 8.569857431343848 4.343580457966993)"><path d="M0 0 C0 0, 0 0, 0 0 M0 0 C0 0, 0 0, 0 0 M0.22 6.48 C1.73 4.08, 3.06 2.57, 5.58 1.13 M-0.04 6.03 C1.99 3.88, 3.76 1.57, 4.75 0.24 M2.77 11.5 C4.07 6.82, 6.08 3.54, 10.29 0.95 M0.82 10.36 C5.73 5.94, 8.23 2.28, 11.1 0.43 M6.52 10.34 C10.17 7.96, 12.05 5.04, 16.68 1.02 M7.01 9.98 C9.66 6.98, 12.41 3.93, 15.45 0.88 M11.15 11.3 C14.2 9.01, 15.91 6.27, 19.21 2.05 M12.05 10.34 C13.79 7.94, 15.58 5.57, 19.02 2.11 M0.23 8.88 C0.23 8.88, 0.23 8.88, 0.23 8.88 M0.23 8.88 C0.23 8.88, 0.23 8.88, 0.23 8.88 M5.51 8.2 C4.21 6.95, 3.17 6.4, 0.39 3.9 M5.52 8.67 C3.96 6.26, 0.97 4.23, 0.17 3.27 M11.87 8.76 C10.27 7.94, 8.72 5.58, 1.36 -0.51 M12.4 8.27 C7.28 4.35, 3.57 1.85, 1.31 -1.58 M18.39 8.12 C14.48 4.36, 10.53 3.46, 7.97 -1.31 M18.44 7.82 C13.75 5.42, 9.72 2.18, 6.83 -0.62 M17.58 2.63 C16.13 1.44, 15.78 0.44, 12.5 -1.16 M17.72 2.61 C16.03 1.5, 15.18 0.16, 12.78 -1.4" stroke="#009ee3" stroke-width="0.5" fill="none"></path><path d="M-0.93 0.08 C3.43 -1.24, 7.5 -1.45, 16.33 1.18 M-0.2 0.21 C5.17 0.16, 10.83 -0.72, 16.77 0.75 M16.51 -0.44 C17.82 2.25, 16.97 3.36, 17.69 9.13 M17.06 -0.31 C16.92 2.95, 16.95 5.88, 16.95 8.56 M17.09 9.91 C11.74 7.54, 4.31 10, 1.47 10.27 M17.45 8.25 C13.33 8.95, 9.26 8.3, -0.64 8.33 M-0.58 8.51 C-0.4 5.71, 0.65 3.21, 0.28 0.59 M-0.39 8.53 C0.31 6.35, 0.33 3.48, 0.28 -0.3" stroke="#000000" stroke-width="1" fill="none"></path></g><g stroke-linecap="round" transform="translate(436.7493353969696 54.71539153600861) rotate(0 8.569857431343848 4.343580457966993)"><path d="M0 0 C0 0, 0 0, 0 0 M0 0 C0 0, 0 0, 0 0 M-0.17 6.69 C1.04 4.37, 3.16 3.15, 5.76 0.92 M-0.63 6.76 C1.43 4.28, 3.33 1.58, 4.86 0.35 M2.41 10.4 C3.32 6.77, 5.63 4.46, 11.62 1.2 M1.27 11.19 C3.2 7.64, 5.87 5.95, 11.1 -0.01 M7.29 10.56 C9.95 7.51, 12.09 6.48, 16.32 0.61 M6.93 9.91 C9.11 7.59, 11.24 5.32, 16.17 -0.26 M12.88 11.07 C14.18 9.2, 15.04 6.22, 19.15 1.82 M11.92 10.36 C14.54 7.01, 17.18 3.77, 19.21 2.42 M0.23 8.88 C0.23 8.88, 0.23 8.88, 0.23 8.88 M0.23 8.88 C0.23 8.88, 0.23 8.88, 0.23 8.88 M5.58 8.33 C4.25 7.59, 3.64 6.59, 0.49 3.83 M6.05 8.87 C3.26 6.12, 0.93 4.84, -0.14 2.87 M12.28 9.16 C9.72 6.49, 5.44 2.24, 1.53 0.17 M11.78 8.17 C7.52 5.24, 4.67 1.96, 0.46 -0.96 M17.67 8.27 C13.71 5.04, 12.65 3.67, 6.86 0.16 M17.37 8.07 C15.74 5.71, 13.24 3.3, 7.55 -1.32 M17.43 2.33 C16.3 2.23, 15.28 0.63, 13.05 -1.28 M17.41 2.53 C16.27 2.02, 14.92 0.53, 12.81 -1.27" stroke="#009ee3" stroke-width="0.5" fill="none"></path><path d="M0.08 -0.28 C3.7 0.17, 8.45 -0.72, 18.32 0.33 M0.21 -0.3 C6.59 -0.07, 12.23 -0.33, 17.89 -0.74 M16.7 0.6 C17.59 3.16, 16.84 7.38, 17.58 9.19 M16.83 -0.2 C16.94 2.31, 16.76 4.78, 17.01 8.82 M18.36 8.97 C9.66 7.21, 5.73 10.15, 1.58 7.69 M16.71 9.03 C10.78 9.17, 3.55 8.11, -0.35 8.56 M-0.18 8.31 C-0.54 6.6, -0.56 3.46, 0.59 0.11 M-0.16 9.04 C0.33 5.99, 0.16 2.82, -0.3 0.14" stroke="#000000" stroke-width="1" fill="none"></path></g><g transform="translate(614.0000000000002 148.375) rotate(0 17 12.5)"><text x="17" y="18" font-family="Virgil, Segoe UI Emoji" font-size="20px" fill="#000000" text-anchor="middle" style="white-space: pre;" direction="ltr">out</text></g><g transform="translate(660.7500000000002 75.24999999999994) rotate(0 7 12.5)"><text x="7" y="18" font-family="Virgil, Segoe UI Emoji" font-size="20px" fill="#000000" text-anchor="middle" style="white-space: pre;" direction="ltr">in</text></g><g transform="translate(-19.999999999999773 410.125) rotate(270 49.5 12.5)"><text x="0" y="18" font-family="Virgil, Segoe UI Emoji" font-size="20px" fill="#000000" text-anchor="start" style="white-space: pre;" direction="ltr">Database</text></g><g stroke-linecap="round" transform="translate(52.27536231884085 149.17572463768124) rotate(0 11.5 5.5)"><path d="M-0.49 1.41 L23.24 1.64 L22.33 10.11 L0.26 12.41" stroke="none" stroke-width="0" fill="#009ee3"></path><path d="M1.08 -1.9 C7.56 -0.61, 15.8 -1.9, 23.27 -0.69 M0.86 0.02 C6.06 -0.53, 11.36 -0.17, 23.07 0.22 M24.06 0.98 C23.78 3.94, 22.79 6.58, 23.42 10.48 M23.34 0.26 C23.18 3.68, 22.89 6.19, 22.57 11.01 M23.95 12.92 C14.46 9.47, 10.12 11.09, -1.88 11.15 M23.97 11.72 C16.41 11.3, 8.92 10.28, 0.01 11.95 M0.18 10.17 C-0.04 7.93, 1.11 4.83, -0.06 -0.02 M0.02 10.81 C0.38 8.39, 0.35 5.15, 0.11 -0.31" stroke="#000000" stroke-width="1" fill="none"></path></g><g stroke-linecap="round" transform="translate(112.47101449275374 149.197463768116) rotate(0 11.5 5.5)"><path d="M1.6 -0.23 L23.06 1.23 L21.21 11.38 L-1.88 11.46" stroke="none" stroke-width="0" fill="#009ee3"></path><path d="M-0.02 -0.08 C9.6 1.34, 17.45 0.79, 24.4 -0.37 M-0.06 -0.1 C5.49 0.47, 11.46 -0.89, 22.21 0.31 M23.1 -0.67 C22.06 4.38, 23.69 7.21, 23.52 11.16 M23.03 -0.06 C22.79 2.79, 22.59 5.37, 23.14 11.55 M22.29 12.33 C15.94 11.06, 6.27 12.66, 1.08 12.55 M22.76 11.71 C16.37 11.69, 9.17 10.42, 0.13 11.71 M-0.62 11.9 C0.64 6.51, -0.27 2.79, 0.58 0.24 M0.49 10.61 C0.08 7.32, -0.32 3.11, -0.5 0.05" stroke="#000000" stroke-width="1" fill="none"></path></g><g stroke-linecap="round" transform="translate(87.66666666666686 145.95833333333337) rotate(0 6 8.5)"><path d="M6.65 -0.46 C9 4.02, 11.08 6.02, 11.9 8.42 M6.84 -0.4 C9.23 3.58, 11.13 7.38, 12.19 9.46 M11.62 8.74 C10.03 10.94, 10.49 12.57, 7.03 17.58 M12.11 8.66 C10.67 10.3, 10.2 12.45, 7.27 17.45 M6.46 16.07 C3.5 14.96, 1.18 10.13, -0.35 9.16 M6.53 16.86 C4.88 14.5, 2.33 11.8, 0.12 9.36 M0.42 9.84 C1.7 6.06, 4.26 4.08, 7.89 0.26 M0.02 9.02 C2.23 6.86, 3.57 4.12, 7.18 -0.25" stroke="#000000" stroke-width="1" fill="none"></path></g><g stroke-linecap="round"><g transform="translate(77.27602108036933 155.83382740447973) rotate(0 4.77342944010303 0.41458632450385835)"><path d="M0.04 1.18 C1.69 1.29, 9.02 -0.45, 10.94 -0.35 M-1.4 0.75 C-0.03 1.07, 7.75 0.78, 9.81 0.66" stroke="#000000" stroke-width="1" fill="none"></path></g></g><g stroke-linecap="round"><g transform="translate(99.01515151515196 154.52947957839274) rotate(0 6.009820121236203 -0.05786300690050439)"><path d="M0.26 0.5 C2.59 0.32, 11.18 -0.49, 13.08 -0.79 M-1.06 -0.28 C1.24 -0.29, 9.86 0.68, 12.37 0.67" stroke="#000000" stroke-width="1" fill="none"></path></g></g><g stroke-linecap="round" transform="translate(28.792325428195795 148.82295783926247) rotate(0 5.9375 5.9375)"><path d="M2.72 -0.26 C3.57 -0.85, 5.46 -0.98, 6.72 -0.41 C7.97 0.16, 9.26 1.87, 10.24 3.14 C11.22 4.4, 12.76 5.9, 12.59 7.17 C12.42 8.44, 10.11 9.99, 9.22 10.75 C8.34 11.51, 8.39 11.64, 7.27 11.73 C6.15 11.81, 3.75 11.91, 2.52 11.27 C1.28 10.63, 0.32 9.28, -0.13 7.89 C-0.57 6.51, -0.84 4.38, -0.14 2.95 C0.55 1.52, 3.27 -0.12, 4.03 -0.68 C4.79 -1.24, 4.28 -0.62, 4.42 -0.41 M7.6 0.67 C8.95 1.5, 11.41 3.2, 12.24 4.3 C13.07 5.41, 13.06 6.36, 12.59 7.31 C12.12 8.26, 10.48 9.19, 9.41 10.02 C8.33 10.84, 7.39 12.25, 6.14 12.27 C4.89 12.28, 3.07 10.99, 1.93 10.11 C0.79 9.24, -0.36 8.13, -0.69 7.04 C-1.03 5.94, -0.8 4.49, -0.08 3.53 C0.65 2.58, 2.24 1.67, 3.66 1.3 C5.07 0.94, 7.79 1.61, 8.42 1.34 C9.04 1.06, 7.67 -0.07, 7.39 -0.36" stroke="#000000" stroke-width="1" fill="none"></path></g><g stroke-linecap="round"><g transform="translate(41.027935061354924 154.87292501286663) rotate(0 5.199651401406015 0.03509220268597346)"><path d="M-0.89 0.76 C1.09 0.83, 9.17 0.89, 11.29 0.87 M0.84 0.11 C2.67 -0.18, 8.35 -0.56, 10.06 -0.8" stroke="#000000" stroke-width="1" fill="none"></path></g></g><g stroke-linecap="round" transform="translate(119.76032942755205 174.168699660754) rotate(0 6.478873239436666 6.267605633802816)"><path d="M8.83 0.98 C10.24 0.97, 11.44 0.91, 12.19 1.99 C12.94 3.07, 13.51 6.12, 13.35 7.44 C13.19 8.76, 12.15 9.19, 11.21 9.91 C10.28 10.63, 9.07 11.52, 7.76 11.77 C6.44 12.02, 4.7 11.88, 3.31 11.41 C1.92 10.95, 0.04 10.31, -0.59 8.99 C-1.21 7.68, -1.25 4.78, -0.44 3.52 C0.36 2.27, 2.49 1.8, 4.25 1.46 C6 1.12, 9.1 1.41, 10.08 1.51 C11.07 1.6, 10.43 2.2, 10.16 2.03 M8.93 1.86 C10.17 2.42, 12.86 2.86, 13.5 3.96 C14.14 5.06, 13.45 7.39, 12.78 8.46 C12.11 9.52, 10.62 9.61, 9.48 10.36 C8.33 11.1, 7.1 12.99, 5.93 12.95 C4.76 12.9, 3.21 11.09, 2.45 10.1 C1.68 9.11, 1.41 8.47, 1.34 6.99 C1.28 5.52, 1.32 2.48, 2.04 1.23 C2.76 -0.03, 4.62 -0.51, 5.67 -0.53 C6.72 -0.55, 7.64 0.98, 8.33 1.09 C9.03 1.21, 9.49 -0.06, 9.84 0.16" stroke="none" stroke-width="0" fill="#868e96"></path><path d="M4.52 -0.64 C5.67 -0.97, 7.56 -0.97, 9.03 -0.03 C10.49 0.91, 12.66 3.55, 13.32 4.99 C13.98 6.43, 13.65 7.51, 12.99 8.62 C12.34 9.72, 10.68 11.11, 9.38 11.6 C8.08 12.09, 6.48 11.66, 5.19 11.54 C3.89 11.41, 2.3 11.73, 1.58 10.86 C0.87 9.99, 0.92 7.83, 0.91 6.31 C0.9 4.8, 0.59 2.73, 1.53 1.78 C2.47 0.83, 5.58 0.93, 6.58 0.62 C7.57 0.3, 7.46 0.04, 7.5 -0.1 M8.77 1.83 C9.9 2.39, 10.23 3.86, 10.9 4.9 C11.57 5.94, 12.89 6.86, 12.79 8.06 C12.69 9.27, 11.3 11.43, 10.31 12.11 C9.31 12.79, 8.09 12.5, 6.81 12.14 C5.53 11.77, 3.91 10.66, 2.61 9.91 C1.31 9.17, -0.95 8.61, -1 7.65 C-1.05 6.68, 1.4 5.5, 2.31 4.15 C3.23 2.79, 3.33 0.24, 4.49 -0.48 C5.64 -1.21, 8.73 -0.46, 9.25 -0.21 C9.76 0.04, 7.78 0.58, 7.57 1.03" stroke="#000000" stroke-width="1" fill="none"></path></g><g stroke-linecap="round"><g transform="translate(125.53497731487607 161.3517982523033) rotate(0 0.3548106823099033 6.275211273710568)"><path d="M1.12 -0.08 C1.08 2.13, -0.47 11.44, -0.82 13.71 M0.26 -1.16 C0.64 0.64, 1.33 9.75, 1.53 11.84" stroke="#000000" stroke-width="1" fill="none"></path></g></g><g stroke-linecap="round" transform="translate(714.2143742090614 12.991065550079156) rotate(0 35 73.99999999999997)"><path d="M1.91 -1.12 C19.79 1.46, 41.58 -0.1, 69.17 -2 M68.51 0.41 C71.99 51.83, 69.36 106.54, 70.93 147.26 M69.33 147.31 C44.17 147.89, 17.31 145.67, 0.44 147.55 M1.05 147.5 C1.27 110.63, -1.22 73.66, 0.29 -1.83" stroke="#000000" stroke-width="1.5" fill="none" stroke-dasharray="8 9"></path></g><g stroke-linecap="round"><g transform="translate(695.4661480473171 186.84043227873264) rotate(180 0.6190970744066817 61.27245859623085)"><path d="M1.01 -0.98 C1.29 19.66, 1.1 102.75, 0.94 123.52 M0.09 1.12 C0.34 21.42, 0.62 101.57, 0.48 121.65" stroke="#000000" stroke-width="1" fill="none"></path></g></g><g stroke-linecap="round"><g transform="translate(687.8944567400979 252.7388194715677) rotate(180 3.727037939258821 -32.083290418597386)"><path d="M-0.98 0.94 C0.48 -10.08, 6.84 -53.91, 8.43 -65.1 M0.71 0.38 C2.07 -9.91, 6.5 -52.58, 7.74 -63.56" stroke="#000000" stroke-width="1" fill="none"></path></g></g><g stroke-linecap="round"><g transform="translate(695.6561176846392 310.00334732673787) rotate(180 -4.348605722414618 -29.130944073118428)"><path d="M0.94 0.48 C-0.68 -8.85, -6.9 -47.11, -8.69 -56.94 M-0.03 -0.31 C-1.9 -9.91, -8.38 -49.18, -9.63 -58.74" stroke="#000000" stroke-width="1" fill="none"></path></g></g><g transform="translate(661.2321871045308 235.875) rotate(0 7 12.5)"><text x="7" y="18" font-family="Virgil, Segoe UI Emoji" font-size="20px" fill="#000000" text-anchor="middle" style="white-space: pre;" direction="ltr">in</text></g><g stroke-linecap="round" transform="translate(714.6965613135919 173.6160655500792) rotate(0 35 73.99999999999997)"><path d="M1.01 -1.87 C24.86 1.56, 52.31 -0.12, 71.19 -0.37 M69.9 -1.91 C71.05 57.94, 68.18 112.44, 68.8 149.69 M71.73 147.14 C49.53 150.25, 28.16 147.74, -0.22 147.81 M1.65 148.16 C-0.27 96.39, -0.88 43.35, 0.29 -1.31" stroke="#000000" stroke-width="1.5" fill="none" stroke-dasharray="8 9"></path></g><g transform="translate(705.4643742090614 59.491065550079156) rotate(270 45 25)"><text x="45" y="18" font-family="Virgil, Segoe UI Emoji" font-size="20px" fill="#000000" text-anchor="middle" style="white-space: pre;" direction="ltr">External</text><text x="45" y="43" font-family="Virgil, Segoe UI Emoji" font-size="20px" fill="#000000" text-anchor="middle" style="white-space: pre;" direction="ltr">System A</text></g><g transform="translate(704.4643742090614 220.74106555007916) rotate(270 46 25)"><text x="46" y="18" font-family="Virgil, Segoe UI Emoji" font-size="20px" fill="#000000" text-anchor="middle" style="white-space: pre;" direction="ltr">External</text><text x="46" y="43" font-family="Virgil, Segoe UI Emoji" font-size="20px" fill="#000000" text-anchor="middle" style="white-space: pre;" direction="ltr">System B</text></g></svg>